<?xml version="1.0" encoding="utf-8"?>
<svg version="1.1" xmlns:xlink="http://www.w3.org/1999/xlink" width="159px" height="200px" xmlns="http://www.w3.org/2000/svg">
  <g transform="matrix(1 0 0 1 -1360 -267 )">
    <path d="M 58.860492001120924 19.99999847412121  C 58.860492001120924 19.99999847412121  58.860492001120924 0  58.860492001120924 0  C 74.6635448904582 0  90.24224807672866 3.7349049579692872  104.32287168734699 10.899345520069465  C 118.4034952979653 18.063786082169642  130.58624285224033 28.45434067120814  139.87504540777044 41.22146673420206  C 149.16384796330053 53.98859279719599  155.29496784210886 68.76979207841552  157.76711185822245 84.35653805873581  C 160.239255874336 99.9432840390561  158.98223357014726 115.89301846366742  154.0988242222442 130.90167763506489  C 149.2154148743411 145.91033680646234  140.8442777632238 159.5517685278497  129.66983467150914 170.71064981760787  C 118.49539157979447 181.8695311073661  104.8349213299566 190.22900894325187  89.80532578849991 195.10562171130206  C 74.77573024704326 199.98223447935223  58.80374753212371 201.2375227460844  43.19525583939123 198.76882943963398  C 27.586764146658737 196.30013613318357  12.78494200010225 190.17756060199275  0 180.9017043379437  C 0 180.9017043379437  11.772098400224184 164.72136194447617  11.772098400224184 164.72136194447617  C 22.000051618304106 172.14204714645024  33.84150818954366 177.04010745219364  46.32830154372965 179.0150620258284  C 58.81509489791564 180.99001659946313  71.59268431686725 179.98579511750833  83.61636055903163 176.0845049984356  C 95.64003680119603 172.18321487936288  106.56840860804475 165.4956195453171  115.50796308141646 156.56851527644994  C 124.4475175547882 147.64141100758278  131.14442877168955 136.7282620065108  135.051156250012 124.72133447865797  C 138.95788372833448 112.71440695080513  139.96350164331082 99.95461941111607  137.98578635879463 87.4852228175947  C 136.0080710742784 75.01582622407331  131.10317973137916 63.19087023232497  123.67213778245555 52.977168809725285  C 116.24109583353194 42.7634673871256  106.49489330158987 34.451026672284954  95.23039422209426 28.719474508707084  C 83.96589514259865 22.987922345129217  71.50293393058887 19.999998624670795  58.860492001120924 19.99999847412121  Z " fill-rule="nonzero" fill="#165dff" stroke="none" transform="matrix(1 0 0 1 1360 267 )" />
  </g>
</svg>