<?xml version="1.0" encoding="utf-8"?>
<svg version="1.1" xmlns:xlink="http://www.w3.org/1999/xlink" width="100px" height="181px" xmlns="http://www.w3.org/2000/svg">
  <g transform="matrix(1 0 0 1 -1319 -267 )">
    <path d="M 52.9771842956543 164.81086440858957  C 52.9771842956543 164.81086440858957  41.22148132324219 181  41.22148132324219 181  C 24.13671875 168.58045061230268  11.420148372650146 151.06808568484325  4.894349575042725 130.9728313449859  C -1.6314492225646973 110.87757700512856  -1.6314496994018557 89.23110524846793  4.894347667694092 69.13585090861058  C 11.420145034790039 49.04059656875323  24.1367130279541 31.528228778716237  41.221473693847656 19.108678436826423  C 58.30623435974122 6.689128094936609  78.8820743560791 0  100 0  C 100 0  100 20.01086746200564  100 20.01086746200564  C 83.10565948486328 20.01086726043317  66.64498901367188 25.362169937954924  52.97718048095703 35.297810211466775  C 39.30937194824219 45.233450484978626  29.13611602783203 59.243342045269166  23.915477752685547 75.31954513547805  C 18.694839477539062 91.39574822568693  18.69484043121338 108.71292639436943  23.91547966003418 124.78912948457831  C 29.136118888854977 140.8653325747872  39.30937480926514 154.87522508927023  52.9771842956543 164.81086440858957  Z " fill-rule="nonzero" fill="#14c9c9" stroke="none" transform="matrix(1 0 0 1 1319 267 )" />
  </g>
</svg>