<?xml version="1.0" encoding="utf-8"?>
<svg version="1.1" xmlns:xlink="http://www.w3.org/1999/xlink" width="163px" height="122px" xmlns="http://www.w3.org/2000/svg">
  <g transform="matrix(1 0 0 1 -1011 -145 )">
    <path d="M 13 44  L 13 113  L 150 113  L 150 44  L 13 44  Z M 49.27223557692308 32.06584821428571  C 49.85997596153846 31.657366071428566  50.15384615384615 31.135416666666657  51 30.5  L 51 10.892857142857144  C 50.15384615384615 10.25744047619046  49.85997596153846 9.735491071428566  49.27223557692308 9.327008928571434  C 48.68449519230769 8.91852678571429  47.93349358974359 8.71428571428571  47.01923076923077 8.71428571428571  L 40.75 8.71428571428571  C 39.83573717948719 8.71428571428571  39.08473557692308 8.91852678571429  38.49699519230769 9.327008928571434  C 37.90925480769231 9.735491071428566  37.61538461538462 10.25744047619046  38 10.892857142857144  L 38 30.5  C 37.61538461538462 31.135416666666657  37.90925480769231 31.657366071428566  38.49699519230769 32.06584821428571  C 39.08473557692308 32.474330357142854  39.83573717948719 32.67857142857144  40.75 32.67857142857144  L 47.01923076923077 32.67857142857144  C 47.93349358974359 32.67857142857144  48.68449519230769 32.474330357142854  49.27223557692308 32.06584821428571  Z M 124.5030048076923 32.06584821428571  C 125.0907451923077 31.657366071428566  125.38461538461539 31.135416666666657  125 30.5  L 125 10.892857142857144  C 125.38461538461539 10.25744047619046  125.0907451923077 9.735491071428566  124.5030048076923 9.327008928571434  C 123.91526442307692 8.91852678571429  123.16426282051283 8.71428571428571  122.25 8.71428571428571  L 115.98076923076924 8.71428571428571  C 115.06650641025642 8.71428571428571  114.3155048076923 8.91852678571429  113.72776442307692 9.327008928571434  C 113.14002403846153 9.735491071428566  112.84615384615384 10.25744047619046  112 10.892857142857144  L 112 30.5  C 112.84615384615384 31.135416666666657  113.14002403846153 31.657366071428566  113.72776442307692 32.06584821428571  C 114.3155048076923 32.474330357142854  115.06650641025642 32.67857142857144  115.98076923076924 32.67857142857144  L 122.25 32.67857142857144  C 123.16426282051283 32.67857142857144  123.91526442307692 32.474330357142854  124.5030048076923 32.06584821428571  Z M 159.27764423076923 20.015625  C 161.75921474358975 21.740327380952383  163 23.78273809523809  163 26.142857142857146  L 163 113.28571428571429  C 163 115.64583333333334  161.75921474358975 117.68824404761905  159.27764423076923 119.41294642857143  C 156.79607371794873 121.1376488095238  153.8573717948718 122  150.46153846153848 122  L 12.538461538461538 122  C 9.142628205128206 122  6.203926282051283 121.1376488095238  3.722355769230769 119.41294642857143  C 1.2407852564102564 117.68824404761905  0 115.64583333333334  0 113.28571428571429  L 0 26.142857142857146  C 0 23.78273809523809  1.2407852564102564 21.740327380952383  3.722355769230769 20.015625  C 6.203926282051283 18.290922619047606  9.142628205128206 17.428571428571434  12.538461538461538 18  L 25.076923076923077 18  L 25.076923076923077 10.892857142857144  C 25.076923076923077 7.897321428571434  26.611578525641026 5.332961309523802  29.680889423076923 3.1997767857142896  C 32.750200320512825 1.0665922619047632  36.43990384615385 0  40.75 0  L 47.01923076923077 0  C 51.32932692307692 0  55.019030448717956 1.0665922619047632  58.08834134615385 3.1997767857142896  C 61.157652243589745 5.332961309523802  62.69230769230769 7.897321428571434  62.69230769230769 10.892857142857144  L 62.69230769230769 18  L 100.3076923076923 18  L 100.3076923076923 10.892857142857144  C 100.3076923076923 7.897321428571434  101.84234775641026 5.332961309523802  104.91165865384616 3.1997767857142896  C 107.98096955128207 1.0665922619047632  111.67067307692308 0  115.98076923076924 0  L 122.25 0  C 126.56009615384616 0  130.24979967948718 1.0665922619047632  133.31911057692307 3.1997767857142896  C 136.38842147435898 5.332961309523802  137.92307692307693 7.897321428571434  137.92307692307693 10.892857142857144  L 137.92307692307693 18  L 150.46153846153848 18  C 153.8573717948718 17.428571428571434  156.79607371794873 18.290922619047606  159.27764423076923 20.015625  Z " fill-rule="nonzero" fill="#000000" stroke="none" transform="matrix(1 0 0 1 1011 145 )" />
  </g>
</svg>