<?xml version="1.0" encoding="utf-8"?>
<svg version="1.1" xmlns:xlink="http://www.w3.org/1999/xlink" width="79px" height="76px" xmlns="http://www.w3.org/2000/svg">
  <g transform="matrix(1 0 0 1 -55 -61 )">
    <path d="M 50.96151496640196 22.00610873549175  L 56.12522907758095 26.973732437385458  L 70.26511912034209 13.370800244349422  L 65.1014050091631 8.403176542455713  L 50.96151496640196 22.00610873549175  Z M 76.82834453268174 11.281612706169824  C 77.40745265729994 11.838729383017714  77.69700671960905 12.53512522907758  77.69700671960905 13.370800244349422  C 77.69700671960905 14.20647525962126  77.40745265729994 14.902871105681127  76.82834453268174 15.459987782529018  L 14.767257177764202 75.16432498472815  C 14.188149053145999 75.72144166157605  13.464263897373245 76  12.595601710445937 76  C 11.726939523518631 76  11.00305436774588 75.72144166157605  10.423946243127672 75.16432498472815  L 0.8686621869273067 65.97189981673793  C 0.2895540623091027 65.41478313989005  0 64.71838729383018  0 63.88271227855834  C 0 63.047037263286505  0.2895540623091027 62.35064141722664  0.8686621869273067 61.793524740378736  L 62.929749541844835 2.089187538179597  C 63.50885766646304 1.532070861331706  64.23274282223579 1.2535125229077564  65.1014050091631 1.2535125229077564  C 65.97006719609041 1.2535125229077564  66.69395235186316 1.532070861331706  67.27306047648136 2.089187538179597  L 76.82834453268174 11.281612706169824  Z M 11.051313378130727 0  L 12.499083689676237 4.549786194257784  L 17.22846670739157 5.942577886377515  L 12.499083689676237 7.335369578497247  L 11.051313378130727 11.88515577275504  L 9.603543066585218 7.335369578497247  L 4.874160048869885 5.942577886377515  L 9.603543066585218 4.549786194257784  L 11.051313378130727 0  Z M 26.494196701282835 2.971288943188762  L 29.389737324373854 12.07086133170434  L 38.848503359804525 14.856444715943802  L 29.389737324373854 17.642028100183264  L 26.494196701282835 26.741600488698843  L 23.598656078191816 17.642028100183264  L 14.139890042761149 14.856444715943802  L 23.598656078191816 12.07086133170434  L 26.494196701282835 2.971288943188762  Z M 72.82284667073917 29.712889431887596  L 74.27061698228466 34.26267562614539  L 79 35.65546731826512  L 74.27061698228466 37.048259010384854  L 72.82284667073917 41.59804520464264  L 71.37507635919366 37.048259010384854  L 66.6456933414783 35.65546731826512  L 71.37507635919366 34.26267562614539  L 72.82284667073917 29.712889431887596  Z M 41.93708002443494 0  L 43.38485033598045 4.549786194257784  L 48.11423335369579 5.942577886377515  L 43.38485033598045 7.335369578497247  L 41.93708002443494 11.88515577275504  L 40.48930971288943 7.335369578497247  L 35.759926695174094 5.942577886377515  L 40.48930971288943 4.549786194257784  L 41.93708002443494 0  Z " fill-rule="nonzero" fill="#81d3f8" stroke="none" transform="matrix(1 0 0 1 55 61 )" />
  </g>
</svg>