<?xml version="1.0" encoding="utf-8"?>
<svg version="1.1" xmlns:xlink="http://www.w3.org/1999/xlink" width="185px" height="220px" xmlns="http://www.w3.org/2000/svg">
  <g transform="matrix(1 0 0 1 -610 -567 )">
    <path d="M 68.48547811451176 21.999998321533333  C 68.48547811451176 21.999998321533333  68.48547811451176 0  68.48547811451176 0  C 86.87267801719979 0  104.99884210185411 4.1083954537662155  121.38195762364272 11.989280072076411  C 137.76507314543133 19.870164690386606  151.93996809851862 31.299774738328953  162.7476943423744 45.343613407622264  C 173.55542058623016 59.38745207691559  180.68911352698203 75.64677128625708  183.56550750799465 92.79219186460939  C 186.4419014890073 109.9376124429617  184.97932836778142 127.48232031003415  179.297374095064 143.99184539857137  C 173.61541982234655 160.50137048710857  163.87541752324782 175.50694538063465  150.87370700773076 187.78171479936867  C 137.8719964922137 200.0564842181027  121.97773865435202 209.25190983757707  104.49047340171374 214.61618388243227  C 87.00320814907549 219.98045792728746  68.41945467574142 221.36127502069283  50.258631008096714 218.64571238359738  C 32.097807340451986 215.93014974650194  14.875561446659852 209.19531666219203  0 198.99187477173808  C 0 198.99187477173808  13.697095622902353 181.1934981389238  13.697095622902353 181.1934981389238  C 25.59754433576264 189.35625186109527  39.375339717393565 194.74411819741303  53.90399865150935 196.91656822841125  C 68.43265758562512 199.08901825940947  83.29966414226692 197.98437462925915  97.28947612214372 193.69295549827916  C 111.27928810202053 189.40153636729917  123.99468926093256 182.0451814998488  134.3960576733462 172.22536680409493  C 144.79742608575987 162.40555210834106  152.58942970290923 150.40108820716185  157.13499312108314 137.19346792652377  C 161.6805565392571 123.98584764588564  162.85061511957548 109.95008135222768  160.5494998514277 96.23374509935417  C 158.24838458327991 82.51740884648065  152.54143553651036 69.50995725555747  143.8952546525426 58.274885690697815  C 135.2490737685749 47.039814125838156  123.90915258361085 37.89612933951344  110.80265994394615 31.59142195957779  C 97.69616730428146 25.286714579642137  83.1952375921946 21.999998487137873  68.48547811451176 21.999998321533333  Z " fill-rule="nonzero" fill="#165dff" stroke="none" transform="matrix(1 0 0 1 610 567 )" />
  </g>
</svg>