<?xml version="1.0" encoding="utf-8"?>
<svg version="1.1" xmlns:xlink="http://www.w3.org/1999/xlink" width="116px" height="198px" xmlns="http://www.w3.org/2000/svg">
  <g transform="matrix(1 0 0 1 -562 -567 )">
    <path d="M 61.453533782958985 180.29033786133004  C 61.453533782958985 180.29033786133004  47.81691833496094 198  47.81691833496094 198  C 27.99859375 184.4139735979886  13.247372112274169 165.2568009149114  5.67744550704956 143.27414699617245  C -1.8924810981750488 121.29149307743344  -1.8924816513061524 97.61192728837929  5.677443294525147 75.6292733696403  C 13.247368240356444 53.646619450901326  27.99858711242676 34.489443636385715  47.81690948486328 20.903416190561504  C 67.63523185729981 7.317388744737285  91.50320625305176 0  116 0  C 116 0  116 21.89034120153103  116 21.89034120153103  C 96.4025650024414 21.89034098102634  77.30818725585938 27.744252197320854  61.453529357910156 38.61307415398023  C 45.59887145996094 49.4818961106396  33.797894592285154 64.80763383957621  27.741954193115234 82.39375655704228  C 21.686013793945314 99.97987927450835  21.686014900207518 118.92353274080192  27.741956405639648 136.50965545826799  C 33.79789791107177 154.09577817573404  45.59887477874756 169.42151694848346  61.453533782958985 180.29033786133004  Z " fill-rule="nonzero" fill="#14c9c9" stroke="none" transform="matrix(1 0 0 1 562 567 )" />
  </g>
</svg>