<?xml version="1.0" encoding="utf-8"?>
<svg version="1.1" xmlns:xlink="http://www.w3.org/1999/xlink" width="112px" height="200px" xmlns="http://www.w3.org/2000/svg">
  <g transform="matrix(1 0 0 1 -1380 -568 )">
    <path d="M 59.33444641113282 182.11145238518185  C 59.33444641113282 182.11145238518185  46.16805908203125 200  46.16805908203125 200  C 27.033125 186.27674100806928  12.790566177368163 166.92606153021353  5.481671524047852 144.72136060219438  C -1.827223129272461 122.5166596741752  -1.8272236633300782 98.59790635189827  5.481669387817383 76.3932054238791  C 12.790562438964843 54.188504495859924  27.033118591308593 34.83782185493507  46.16805053710937 21.114561808647984  C 65.30298248291017 7.391301762360894  88.3479232788086 0  112 0  C 112 0  112 22.11145575912225  112 22.11145575912225  C 93.07833862304688 22.111455536390242  74.6423876953125 28.024497169010964  59.334442138671875 39.00310520604064  C 44.02649658203125 49.98171324307031  32.63244995117188 65.46225640361234  26.785335083007812 83.22601672428513  C 20.93822021484375 100.98977704495793  20.938221282958985 120.12478054626456  26.785337219238283 137.88854086693735  C 32.632453155517574 155.65230118761016  44.02649978637695 171.13284540250854  59.33444641113282 182.11145238518185  Z " fill-rule="nonzero" fill="#14c9c9" stroke="none" transform="matrix(1 0 0 1 1380 568 )" />
  </g>
</svg>