<?xml version="1.0" encoding="utf-8"?>
<svg version="1.1" xmlns:xlink="http://www.w3.org/1999/xlink" width="179px" height="221px" xmlns="http://www.w3.org/2000/svg">
  <g transform="matrix(1 0 0 1 -1426 -568 )">
    <path d="M 66.26432747296003 22.09999831390394  C 66.26432747296003 22.09999831390394  66.26432747296003 0  66.26432747296003 0  C 84.0551857571825 0  101.59347424990207 4.1270699785560625  117.44524548449755 12.043776799676758  C 133.29701671909302 19.960483620797454  147.0121853493775 31.442046441684994  157.46939074208117 45.54972074129328  C 167.92659613478486 59.65739504090157  174.82892606124207 75.99062024664916  177.61203158881645 93.21397455490307  C 180.39513711639086 110.43732886315698  178.97999879909662 128.06178540235248  173.48232412441325 144.6463537867467  C 167.9846494497299 161.2309221711409  158.56053911708844 176.30470422327392  145.98050569937192 188.6352680484567  C 133.40047228165542 200.96583187363953  118.02170388718385 210.20305488229332  101.10159318327979 215.59171199098878  C 84.18148247937575 220.98036909968422  66.20044533490656 222.36746263442325  48.62862135378006 219.63955653079555  C 31.056797372653545 216.91165042716784  14.39311080514656 210.146204465202  0 199.8963832934278  C 0 199.8963832934278  13.252865494592006 182.01710494864616  13.252865494592006 182.01710494864616  C 24.767353708656824 190.21696209682753  38.09830167250513 195.62931873467397  52.15576085740634 197.81164353854038  C 66.21322004230755 199.9939683424068  80.59805341332853 198.88430360484668  94.13414176142555 194.57337802327135  C 107.67023010952258 190.26245244169598  119.97323987949692 182.8726595975754  130.0372666136701 173.00820938047718  C 140.10129334784332 163.14375916337895  147.64058333416622 151.0847295171944  152.03872307391288 137.81707459891706  C 156.4368628136596 124.54941968063966  157.56897354812978 110.44985444928327  155.34248904543546 96.67117121344214  C 153.1160045427411 82.89248797760101  147.59414573532624 69.82591160671909  139.22838152867638 58.539771534746436  C 130.86261732202652 47.25363146277378  119.89047736468292 38.06838447287487  107.20906016198033 31.735019332121325  C 94.52764295927774 25.401654191367783  80.49701367028558 22.099998480261227  66.26432747296003 22.09999831390394  Z " fill-rule="nonzero" fill="#165dff" stroke="none" transform="matrix(1 0 0 1 1426 568 )" />
  </g>
</svg>