<?xml version="1.0" encoding="utf-8"?>
<svg version="1.1" xmlns:xlink="http://www.w3.org/1999/xlink" width="36px" height="50px" xmlns="http://www.w3.org/2000/svg">
  <g transform="matrix(1 0 0 1 -1046 -387 )">
    <path d="M 23.234594594594594 37.96875  C 23.545945945945945 38.28125  23.701621621621623 38.64583333333333  23.701621621621623 39.0625  L 23.701621621621623 48.4375  C 23.701621621621623 48.85416666666667  23.545945945945945 49.21875  23.234594594594594 49.53125  C 22.923243243243245 49.84375  22.560000000000002 50  22.144864864864868 50  L 12.804324324324323 50  C 12.38918918918919 50  12.02594594594595 49.84375  11.714594594594594 49.53125  C 11.403243243243242 49.21875  11.247567567567566 48.85416666666667  11.247567567567566 48.4375  L 11.247567567567566 39.0625  C 11.247567567567566 38.64583333333333  11.403243243243242 38.28125  11.714594594594594 37.96875  C 12.02594594594595 37.65625  12.38918918918919 37.5  12.804324324324323 37.5  L 22.144864864864868 37.5  C 22.560000000000002 37.5  22.923243243243245 37.65625  23.234594594594594 37.96875  Z M 34.40432432432432 9.433593750000002  C 35.46810810810811 11.399739583333329  36.00000000000001 13.463541666666663  36 15.625  C 36.00000000000001 17.031249999999996  35.79891891891892 18.346354166666668  35.39675675675676 19.570312499999996  C 34.994594594594595 20.79427083333333  34.54054054054054 21.790364583333332  34.034594594594594 22.55859375  C 33.52864864864865 23.326822916666668  32.81513513513514 24.1015625  31.894054054054056 24.8828125  C 30.97297297297298 25.6640625  30.22702702702703 26.230468750000004  29.656216216216215 26.58203125  C 29.085405405405407 26.93359375  28.29405405405405 27.39583333333333  27.282162162162162 27.968749999999996  C 26.218378378378382 28.56770833333333  25.32972972972973 29.4140625  24.616216216216216 30.507812499999996  C 23.902702702702705 31.601562500000004  23.545945945945945 32.47395833333333  23.545945945945945 33.125  C 23.545945945945945 33.56770833333333  23.39027027027027 33.99088541666666  23.07891891891892 34.39453125  C 22.767567567567568 34.798177083333336  22.404324324324328 35  21.98918918918919 35  L 12.64864864864865 35  C 12.259459459459462 35  11.92864864864865 34.75911458333334  11.656216216216217 34.27734375  C 11.383783783783784 33.79557291666666  11.247567567567566 33.30729166666666  11.247567567567566 32.8125  L 11.247567567567566 31.0546875  C 11.247567567567566 28.893229166666668  12.09081081081081 26.85546875  13.777297297297297 24.941406249999996  C 15.463783783783786 23.02734375  17.31891891891892 21.614583333333332  19.342702702702702 20.703125  C 20.873513513513515 19.999999999999996  21.96324324324324 19.270833333333332  22.611891891891894 18.515625000000004  C 23.260540540540543 17.760416666666668  23.584864864864862 16.77083333333333  23.584864864864862 15.546874999999998  C 23.584864864864862 14.453124999999995  22.981621621621624 13.489583333333332  21.775135135135137 12.656250000000002  C 20.56864864864865 11.822916666666666  19.174054054054057 11.406250000000002  17.591351351351353 11.406250000000002  C 15.904864864864866 11.406250000000002  14.503783783783783 11.783854166666663  13.388108108108106 12.539062499999998  C 12.48 13.190104166666666  11.091891891891892 14.687499999999998  9.223783783783784 17.031249999999996  C 8.886486486486488 17.447916666666664  8.484324324324325 17.656249999999996  8.017297297297297 17.65625  C 7.705945945945946 17.656249999999996  7.381621621621623 17.55208333333333  7.044324324324324 17.343750000000004  L 0.6616216216216216 12.460937500000002  C 0.3243243243243247 12.200520833333329  0.12324324324324398 11.875000000000002  0.05837837837837838 11.484375000000002  C -0.0064864864864861175 11.093750000000002  0.06486486486486505 10.729166666666668  0.2724324324324324 10.390624999999998  C 4.423783783783785 3.4635416666666585  10.443243243243245 0  18.33081081081081 0  C 20.40648648648649 0  22.495135135135133 0.4036458333333326  24.596756756756758 1.2109374999999978  C 26.69837837837838 2.018229166666663  28.592432432432435 3.0989583333333295  30.27891891891892 4.453125000000002  C 31.965405405405406 5.807291666666659  33.340540540540545 7.467447916666659  34.40432432432432 9.433593750000002  Z " fill-rule="nonzero" fill="#d9001b" stroke="none" transform="matrix(1 0 0 1 1046 387 )" />
  </g>
</svg>