<?xml version="1.0" encoding="utf-8"?>
<svg version="1.1" xmlns:xlink="http://www.w3.org/1999/xlink" width="67px" height="90px" xmlns="http://www.w3.org/2000/svg">
  <g transform="matrix(1 0 0 1 -684 -417 )">
    <path d="M 50.424479166666664 3.4151785714285743  L 64.03385416666666 19.084821428571427  C 64.84809027777779 20.022321428571423  65.54600694444444 21.29464285714286  66.12760416666666 22.90178571428571  C 66.70920138888889 24.508928571428573  67 25.982142857142854  67 27.321428571428573  L 67 85.17857142857143  C 67 86.51785714285714  66.59288194444444 87.65625  65.77864583333334 88.59375  C 64.96440972222223 89.53125  63.97569444444445 90  62.8125 90  L 4.1875 90  C 3.024305555555556 90  2.035590277777778 89.53125  1.2213541666666667 88.59375  C 0.4071180555555555 87.65625  0 86.51785714285714  0 85.17857142857143  L 0 4.821428571428575  C 0 3.482142857142855  0.4071180555555555 2.3437499999999964  1.2213541666666667 1.40625  C 2.035590277777778 0.46875000000000333  3.024305555555556 0  4.1875 0  L 43.270833333333336 0  C 44.434027777777786 0  45.713541666666664 0.3348214285714324  47.109375 1.0044642857142871  C 48.505208333333336 1.674107142857142  49.61024305555556 2.4776785714285676  50.424479166666664 3.4151785714285743  Z M 46.455078125 7.935267857142861  C 46.106119791666664 7.533482142857139  45.50998263888889 7.1651785714285605  44 6.830357142857139  L 44 26  L 61.067708333333336 26  C 60.77690972222223 24.743303571428562  60.45703125 24.05691964285714  60.108072916666664 23.655133928571427  L 46.455078125 7.935267857142861  Z M 6 83  L 61 83  L 61 33  L 43.270833333333336 33  C 42.107638888888886 32.14285714285714  41.118923611111114 31.674107142857135  40.3046875 30.73660714285714  C 39.490451388888886 29.799107142857142  39.083333333333336 28.660714285714274  39 27.321428571428573  L 39 7  L 6 7  L 6 83  Z M 41.875 45  L 55 61.07142857142858  L 55 77  L 11.166666666666666 77  L 11.166666666666666 67.5  L 19.541666666666668 57.857142857142854  L 25.125 64.28571428571429  L 41.875 45  Z M 25.473958333333332 48.61607142857142  C 23.845486111111114 50.491071428571416  21.868055555555557 51.42857142857142  19.541666666666668 51.42857142857142  C 17.21527777777778 51.42857142857142  15.237847222222223 50.491071428571416  13.609375 48.61607142857142  C 11.980902777777779 46.74107142857143  11.166666666666666 44.46428571428571  11.166666666666666 41.785714285714285  C 11.166666666666666 39.10714285714286  11.980902777777779 36.83035714285714  13.609375 34.95535714285714  C 15.237847222222223 33.08035714285714  17.21527777777778 32.14285714285714  19.541666666666668 32.14285714285714  C 21.868055555555557 32.14285714285714  23.845486111111114 33.08035714285714  25.473958333333332 34.95535714285714  C 27.102430555555557 36.83035714285714  27.916666666666668 39.10714285714286  27.916666666666668 41.785714285714285  C 27.916666666666668 44.46428571428571  27.102430555555557 46.74107142857143  25.473958333333332 48.61607142857142  Z " fill-rule="nonzero" fill="#02a7f0" stroke="none" transform="matrix(1 0 0 1 684 417 )" />
  </g>
</svg>