<?xml version="1.0" encoding="utf-8"?>
<svg version="1.1" xmlns:xlink="http://www.w3.org/1999/xlink" width="97px" height="81px" xmlns="http://www.w3.org/2000/svg">
  <g transform="matrix(1 0 0 1 -334 -422 )">
    <path d="M 29 24.05454545454546  L 21.25162689804772 50.07272727272727  L 29 50.07272727272727  L 29 24.05454545454546  Z M 62.15574837310195 53.901818181818186  C 63.670715835140996 50.17090909090909  64.42819956616053 45.65454545454546  64.42819956616053 40.35272727272727  C 64.42819956616053 34.658181818181816  63.71981200289227 30.07636363636363  62.30303687635575 26.60727272727273  C 60.88626174981924 23.138181818181806  58.831236442516264 21.40363636363635  56.137960954446854 21.403636363636366  L 53 21.403636363636366  L 53 59.49818181818183  L 56.05379609544468 59.49818181818183  C 58.60679681851049 59.49818181818183  60.640780911062905 57.632727272727266  62.15574837310195 53.901818181818186  Z M 39.85206073752711 0.9818181818181791  C 40.132610267534346 1.6363636363636198  40.27288503253796 2.4218181818181703  41 3.3381818181818215  L 41 77.56363636363636  C 40.31496746203905 78.47999999999999  40.18170643528562 79.26545454545453  39.91518438177874 79.92  C 39.648662328271875 80.57454545454544  39.319016630513374 80.90181818181819  38.92624728850325 80.90181818181819  L 29.83644251626898 80.90181818181819  C 29.44367317425886 80.90181818181819  29.114027476500365 80.57454545454544  28.847505422993496 79.92  C 28.580983369486624 79.26545454545453  28.44772234273319 78.47999999999999  28.44772234273319 77.56363636363636  L 28.44772234273319 71  L 16.20173535791757 71  L 13.887201735357918 79.4290909090909  C 13.60665220535069 80.41090909090909  13.213882863340565 80.90181818181819  12.70889370932755 81  L 1.4728850325379608 81  C 0.8837310195227766 80.90181818181819  0.45589298626174984 80.31272727272727  0.1893709327548807 79.13454545454545  C -0.07715112075198843 77.95636363636363  -0.02805495300072308 76.81090909090908  0.33665943600867676 75.69818181818182  L 23.734490238611713 1.3745454545454545  C 23.98698481561822 0.45818181818180315  24.365726681127985 0  24.870715835141 0  L 38.84208242950109 0  C 39.23485177151121 0  39.57151120751989 0.3272727272727204  39.85206073752711 0.9818181818181791  Z M 69.77266811279826 10.70181818181818  C 73.30759219088938 17.836363636363625  75.07505422993492 27.719999999999988  75.07505422993492 40.35272727272727  C 75.07505422993492 52.985454545454544  73.31460592913956 62.901818181818165  69.79370932754881 70.10181818181819  C 66.27281272595808 77.30181818181818  61.72089660159075 80.90181818181819  56.137960954446854 81  L 44.775704989154015 81  C 44.382935647143896 80.90181818181819  44.046276211135215 80.57454545454544  43.76572668112798 79.92  C 43.48517715112076 79.26545454545453  43.344902386117134 78.47999999999999  44 77.56363636363636  L 44 3.3381818181818215  C 43.344902386117134 2.4218181818181703  43.48517715112076 1.6363636363636198  43.76572668112798 0.9818181818181791  C 44.046276211135215 0.3272727272727204  44.382935647143896 0  44.775704989154015 0  L 56.05379609544468 0  C 61.6647866955893 0  66.23774403470716 3.5672727272727234  69.77266811279826 10.70181818181818  Z M 81.59783080260303 37.89818181818182  L 81.63991323210412 40.45090909090909  C 81.63991323210412 41.170909090909085  81.63289949385394 42.120000000000005  81.61887201735358 43.29818181818182  C 81.60484454085322 44.47636363636364  81.49262472885033 46.816363636363626  81.28221258134491 50.31818181818182  C 81.07180043383948 53.81999999999999  80.77020968908172 57.1581818181818  80.37744034707158 60.332727272727276  C 79.98467100506146 63.50727272727272  79.36044830079538 67.04181818181817  78.50477223427332 70.93636363636364  C 77.64909616775127 74.83090909090907  76.61807664497469 78.18545454545453  75.4117136659436 81  L 73.26550976138829 81  C 74.33159797541578 78.05454545454545  75.2644251626898 74.63454545454545  76.0639913232104 70.74  C 76.86355748373101 66.84545454545453  77.44569775849602 63.18  77.81041214750542 59.74363636363636  C 78.17512653651482 56.30727272727272  78.46970354302242 53.099999999999994  78.6941431670282 50.12181818181818  C 78.918582791034 47.14363636363636  79.04483007953723 44.77090909090909  79.07288503253795 43.00363636363636  L 79.11496746203905 40.35272727272727  C 79.11496746203905 39.82909090909091  79.10795372378887 39.092727272727274  79.0939262472885 38.14363636363637  C 79.07989877078815 37.19454545454545  78.97469269703544 35.23090909090909  78.77830802603037 32.25272727272727  C 78.58192335502531 29.274545454545454  78.30137382501809 26.279999999999998  77.93665943600867 23.269090909090906  C 77.57194504699929 20.258181818181814  76.99681851048446 16.60909090909089  76.2112798264642 12.32181818181818  C 75.42574114244397 8.034545454545443  74.4999276934201 3.9599999999999893  73.43383947939262 0.09818181818181881  L 75.24338394793926 0.09818181818181881  C 76.39363702096892 3.174545454545448  77.40361532899495 6.676363636363634  78.27331887201736 10.60363636363636  C 79.14302241503978 14.530909090909095  79.78127259580623 18.18  80.1880694143167 21.550909090909094  C 80.59486623282719 24.92181818181817  80.9174981923355 28.063636363636355  81.15596529284164 30.976363636363637  C 81.3944323933478 33.8890909090909  81.54172089660159 36.196363636363635  81.59783080260303 37.89818181818182  Z M 89.3409978308026 37.89818181818182  L 89.38308026030369 40.45090909090909  C 89.38308026030369 41.170909090909085  89.37606652205352 42.120000000000005  89.36203904555315 43.29818181818182  C 89.3480115690528 44.47636363636364  89.23579175704988 46.816363636363626  89.02537960954447 50.31818181818182  C 88.81496746203905 53.81999999999999  88.51337671728128 57.1581818181818  88.12060737527115 60.332727272727276  C 87.72783803326104 63.50727272727272  87.09660159074477 67.04181818181817  86.22689804772234 70.93636363636364  C 85.35719450469993 74.83090909090907  84.31916124367318 78.18545454545453  83.11279826464208 81  L 80.96659436008676 81  C 82.03268257411426 78.05454545454545  82.96550976138828 74.63454545454545  83.76507592190889 70.74  C 84.5646420824295 66.84545454545453  85.14678235719451 63.18  85.5114967462039 59.74363636363636  C 85.87621113521331 56.30727272727272  86.1707881417209 53.099999999999994  86.39522776572669 50.12181818181818  C 86.61966738973247 47.14363636363636  86.74591467823572 44.77090909090909  86.77396963123644 43.00363636363636  L 86.81605206073752 40.35272727272727  C 86.81605206073752 39.82909090909091  86.80903832248735 39.092727272727274  86.79501084598698 38.14363636363637  C 86.78098336948663 37.19454545454545  86.67577729573392 35.23090909090909  86.47939262472886 32.25272727272727  C 86.2830079537238 29.274545454545454  86.00947216196674 26.279999999999998  85.6587852494577 23.269090909090906  C 85.30809833694867 20.258181818181814  84.73998553868402 16.60909090909089  83.95444685466377 12.32181818181818  C 83.16890817064353 8.034545454545443  82.24309472161967 3.9599999999999893  81.1770065075922 0.09818181818181881  L 82.98655097613883 0.09818181818181881  C 84.13680404916848 3.174545454545448  85.14678235719451 6.676363636363634  86.01648590021692 10.60363636363636  C 86.88618944323935 14.530909090909095  87.5244396240058 18.18  87.93123644251627 21.550909090909094  C 88.33803326102677 24.92181818181817  88.66066522053508 28.063636363636355  88.89913232104122 30.976363636363637  C 89.13759942154736 33.8890909090909  89.28488792480117 36.196363636363635  89.3409978308026 37.89818181818182  Z M 96.91583514099783 37.89818181818182  L 97 40.45090909090909  C 97 41.170909090909085  96.99298626174983 42.120000000000005  96.97895878524946 43.29818181818182  C 96.96493130874912 44.47636363636364  96.8527114967462 46.816363636363626  96.64229934924079 50.31818181818182  C 96.43188720173536 53.81999999999999  96.13029645697759 57.1581818181818  95.73752711496746 60.332727272727276  C 95.34475777295735 63.50727272727272  94.72053506869126 67.04181818181817  93.8648590021692 70.93636363636364  C 93.00918293564716 74.83090909090907  91.97816341287059 78.18545454545453  90.77180043383949 81  L 88.62559652928417 81  C 89.69168474331164 78.05454545454545  90.6174981923355 74.63454545454545  91.40303687635576 70.74  C 92.18857556037601 66.84545454545453  92.76370209689082 63.18  93.12841648590022 59.74363636363636  C 93.49313087490962 56.30727272727272  93.78770788141722 53.099999999999994  94.012147505423 50.12181818181818  C 94.23658712942878 47.14363636363636  94.36283441793204 44.77090909090909  94.39088937093275 43.00363636363636  L 94.43297180043383 40.35272727272727  C 94.43297180043383 39.82909090909091  94.42595806218367 39.092727272727274  94.4119305856833 38.14363636363637  C 94.39790310918295 37.19454545454545  94.29269703543024 35.23090909090909  94.09631236442517 32.25272727272727  C 93.89992769342011 29.274545454545454  93.62639190166306 26.279999999999998  93.27570498915401 23.269090909090906  C 92.92501807664499 20.258181818181814  92.35690527838034 16.60909090909089  91.57136659436009 12.32181818181818  C 90.78582791033985 8.034545454545443  89.86001446131598 3.9599999999999893  88.7939262472885 0.09818181818181881  L 90.60347071583514 0.09818181818181881  C 91.75372378886479 3.174545454545448  92.76370209689082 6.676363636363634  93.63340563991322 10.60363636363636  C 94.50310918293566 14.530909090909095  95.14135936370211 18.18  95.54815618221258 21.550909090909094  C 95.95495300072308 24.92181818181817  96.2775849602314 28.063636363636355  96.51605206073754 30.976363636363637  C 96.75451916124368 33.8890909090909  96.88778018799711 36.196363636363635  96.91583514099783 37.89818181818182  Z " fill-rule="nonzero" fill="#02a7f0" stroke="none" transform="matrix(1 0 0 1 334 422 )" />
  </g>
</svg>