<?xml version="1.0" encoding="utf-8"?>
<svg version="1.1" xmlns:xlink="http://www.w3.org/1999/xlink" width="91px" height="87px" xmlns="http://www.w3.org/2000/svg">
  <g transform="matrix(1 0 0 1 -1041 -416 )">
    <path d="M 0 18.642857142857146  L 45.5 0  L 91 18.642857142857146  L 91 24.857142857142854  L 84.93333333333334 24.857142857142854  C 84.93333333333334 25.698660714285715  84.60946180555557 26.42689732142857  83.96171875 27.041852678571434  C 83.31397569444445 27.656808035714274  82.54774305555556 27.96428571428571  81.66302083333333 28  L 9.336979166666666 28  C 8.452256944444445 27.96428571428571  7.686024305555556 27.656808035714274  7.03828125 27.041852678571434  C 6.390538194444445 26.42689732142857  6.066666666666666 25.698660714285715  6.066666666666666 24.857142857142854  L 0 24.857142857142854  L 0 18.642857142857146  Z M 13 68.35714285714286  L 13 31  L 25 31  L 25 68.35714285714286  L 31 68.35714285714286  L 31 31  L 43 31  L 43 68.35714285714286  L 48 68.35714285714286  L 48 31  L 60 31  L 60 68.35714285714286  L 66 68.35714285714286  L 66 31  L 78 31  L 78 68.35714285714286  L 81.66302083333333 68.35714285714286  C 82.54774305555556 68.35714285714286  83.31397569444445 68.66462053571428  83.96171875 69.27957589285714  C 84.60946180555557 69.89453125  84.93333333333334 70.62276785714286  84.93333333333334 71.46428571428571  L 84.93333333333334 74  L 6.066666666666666 74  L 6.066666666666666 71.46428571428571  C 6.066666666666666 70.62276785714286  6.390538194444445 69.89453125  7.03828125 69.27957589285714  C 7.686024305555556 68.66462053571428  8.452256944444445 68.35714285714286  9.336979166666666 68.35714285714286  L 13 68.35714285714286  Z M 3.2703124999999997 77  L 87.7296875 77  C 88.61440972222222 77.67857142857143  89.38064236111111 77.98604910714285  90.02838541666667 78.60100446428571  C 90.67612847222223 79.21595982142857  91.00000000000001 79.94419642857143  91 80.78571428571429  L 91 87  L 0 87  L 0 80.78571428571429  C 0 79.94419642857143  0.3238715277777778 79.21595982142857  0.9716145833333334 78.60100446428571  C 1.619357638888889 77.98604910714285  2.3855902777777778 77.67857142857143  3.2703124999999997 77  Z " fill-rule="nonzero" fill="#02a7f0" stroke="none" transform="matrix(1 0 0 1 1041 416 )" />
  </g>
</svg>