<?xml version="1.0" encoding="utf-8"?>
<svg version="1.1" xmlns:xlink="http://www.w3.org/1999/xlink" width="55px" height="82px" xmlns="http://www.w3.org/2000/svg">
  <g transform="matrix(1 0 0 1 -1437 -421 )">
    <path d="M 11.637369791666666 33.175223214285715  C 16.55490451388889 34.48697916666667  21.842447916666668 35.142857142857146  27.5 35.142857142857146  C 33.157552083333336 35.142857142857146  38.445095486111114 34.48697916666667  43.362630208333336 33.175223214285715  C 48.280164930555564 31.863467261904756  52.15928819444445 29.92633928571428  55 27.36383928571428  L 55 35.142857142857146  C 55 37.247767857142854  53.770616319444436 39.20014880952381  51.311848958333336 41  C 48.85308159722223 42.79985119047618  45.511067708333336 44.22600446428571  41.285807291666664 45.27845982142857  C 37.060546875 46.33091517857143  32.46527777777778 46.857142857142854  27.5 46.857142857142854  C 22.534722222222225 46.857142857142854  17.939453125 46.33091517857143  13.714192708333334 45.27845982142857  C 9.488932291666666 44.22600446428571  6.146918402777779 42.79985119047618  3.688151041666667 41  C 1.2293836805555554 39.20014880952381  0 37.247767857142854  0 35.142857142857146  L 0 27.36383928571428  C 2.840711805555556 29.92633928571428  6.7198350694444455 31.863467261904756  11.637369791666666 33.175223214285715  Z M 11.637369791666666 68.31808035714286  C 16.55490451388889 69.62983630952382  21.842447916666668 70.28571428571429  27.5 70.28571428571429  C 33.157552083333336 70.28571428571429  38.445095486111114 69.62983630952382  43.362630208333336 68.31808035714286  C 48.280164930555564 67.0063244047619  52.15928819444445 65.06919642857143  55 62.50669642857143  L 55 70.28571428571429  C 55 72.390625  53.770616319444436 74.34300595238095  51.311848958333336 76.14285714285714  C 48.85308159722223 77.94270833333333  45.511067708333336 79.36886160714286  41.285807291666664 80.42131696428572  C 37.060546875 81.47377232142857  32.46527777777778 82  27.5 82  C 22.534722222222225 82  17.939453125 81.47377232142857  13.714192708333334 80.42131696428572  C 9.488932291666666 79.36886160714286  6.146918402777779 77.94270833333333  3.688151041666667 76.14285714285714  C 1.2293836805555554 74.34300595238095  0 72.390625  0 70.28571428571429  L 0 62.50669642857143  C 2.840711805555556 65.06919642857143  6.7198350694444455 67.0063244047619  11.637369791666666 68.31808035714286  Z M 11.637369791666666 50.74665178571429  C 16.55490451388889 52.058407738095234  21.842447916666668 52.71428571428571  27.5 52.71428571428571  C 33.157552083333336 52.71428571428571  38.445095486111114 52.058407738095234  43.362630208333336 50.74665178571429  C 48.280164930555564 49.43489583333333  52.15928819444445 47.497767857142854  55 44.935267857142854  L 55 52.71428571428571  C 55 54.81919642857143  53.770616319444436 56.77157738095237  51.311848958333336 58.57142857142857  C 48.85308159722223 60.371279761904766  45.511067708333336 61.79743303571429  41.285807291666664 62.849888392857146  C 37.060546875 63.90234375  32.46527777777778 64.42857142857143  27.5 64.42857142857143  C 22.534722222222225 64.42857142857143  17.939453125 63.90234375  13.714192708333334 62.849888392857146  C 9.488932291666666 61.79743303571429  6.146918402777779 60.371279761904766  3.688151041666667 58.57142857142857  C 1.2293836805555554 56.77157738095237  0 54.81919642857143  0 52.71428571428571  L 0 44.935267857142854  C 2.840711805555556 47.497767857142854  6.7198350694444455 49.43489583333333  11.637369791666666 50.74665178571429  Z M 13.714192708333334 1.5786830357142818  C 17.939453125 0.5262276785714273  22.534722222222225 0  27.5 0  C 32.46527777777778 0  37.060546875 0.5262276785714273  41.285807291666664 1.5786830357142818  C 45.511067708333336 2.6311383928571455  48.85308159722223 4.057291666666663  51.311848958333336 5.857142857142854  C 53.770616319444436 7.656994047619046  55 9.609375  55 11.714285714285719  L 55 17.571428571428573  C 55 19.67633928571428  53.770616319444436 21.628720238095227  51.311848958333336 23.428571428571427  C 48.85308159722223 25.228422619047617  45.511067708333336 26.654575892857146  41.285807291666664 27.70703125  C 37.060546875 28.759486607142854  32.46527777777778 29.28571428571428  27.5 29.28571428571428  C 22.534722222222225 29.28571428571428  17.939453125 28.759486607142854  13.714192708333334 27.70703125  C 9.488932291666666 26.654575892857146  6.146918402777779 25.228422619047617  3.688151041666667 23.428571428571427  C 1.2293836805555554 21.628720238095227  0 19.67633928571428  0 17.571428571428573  L 0 11.714285714285719  C 0 9.609375  1.2293836805555554 7.656994047619046  3.688151041666667 5.857142857142854  C 6.146918402777779 4.057291666666663  9.488932291666666 2.6311383928571455  13.714192708333334 1.5786830357142818  Z " fill-rule="nonzero" fill="#02a7f0" stroke="none" transform="matrix(1 0 0 1 1437 421 )" />
  </g>
</svg>