<?xml version="1.0" encoding="utf-8"?>
<svg version="1.1" xmlns:xlink="http://www.w3.org/1999/xlink" width="18px" height="7px" xmlns="http://www.w3.org/2000/svg">
  <g transform="matrix(1 0 0 1 -555 -183 )">
    <path d="M 17.184 0.1313846153846143  C 16.991999999999997 0.1313846153846143  16.823999999999998 0.18307692307692205  16.68 0.28646153846153843  L 8.999999999999998 5.662461538461537  L 1.3199999999999985 0.28646153846153755  C 1.1759999999999984 0.18307692307692205  1.0079999999999982 0.1313846153846143  0.8159999999999987 0.1313846153846143  C 0.6239999999999992 0.1313846153846143  0.4559999999999991 0.18307692307692205  0.31199999999999894 0.28646153846153755  C 0.16799999999999882 0.38984615384615295  0.09599999999999875 0.5104615384615376  0.09599999999999875 0.6483076923076917  C 0.09599999999999875 0.7861538461538456  0.16000799999999882 0.9010313846153838  0.2879999999999989 0.9929230769230766  L 8.472 6.7135384615384615  C 8.616 6.816923076923077  8.791991999999999 6.868615384615385  9 6.868615384615385  C 9.208008 6.868615384615385  9.384 6.816923076923077  9.528 6.7135384615384615  L 17.712 1.010153846153846  C 17.839992000000002 0.9067692307692304  17.904 0.7832763076923077  17.904 0.6396923076923071  C 17.904 0.4961083076923065  17.832 0.3754929230769227  17.688 0.27784615384615285  C 17.544 0.1801993846153831  17.375999999999998 0.1313846153846143  17.184 0.1313846153846143  Z " fill-rule="nonzero" fill="#c0c4cc" stroke="none" transform="matrix(1 0 0 1 555 183 )" />
  </g>
</svg>