<?xml version="1.0" encoding="utf-8"?>
<svg version="1.1" xmlns:xlink="http://www.w3.org/1999/xlink" width="33px" height="37px" xmlns="http://www.w3.org/2000/svg">
  <g transform="matrix(1 0 0 1 -1552 -48 )">
    <path d="M 32.22222222222222 27.656565656565654  C 32.74074074074074 28.237934904601566  33 28.943883277216607  33 29.774410774410775  C 33 30.604938271604944  32.74074074074074 31.310886644219973  32.22222222222222 31.89225589225589  L 28.444444444444443 36.127946127946124  C 27.92592592592593 36.709315375982044  27.296296296296298 37  26.555555555555557 37  C 25.814814814814817 37  25.185185185185187 36.709315375982044  24.666666666666668 36.127946127946124  L 16.5 26.971380471380474  L 8.333333333333334 36.127946127946124  C 7.814814814814816 36.709315375982044  7.185185185185185 37  6.444444444444445 37  C 5.703703703703704 37  5.074074074074074 36.709315375982044  4.555555555555556 36.127946127946124  L 0.7777777777777778 31.89225589225589  C 0.2592592592592595 31.310886644219973  0 30.604938271604944  0 29.774410774410775  C 0 28.943883277216607  0.2592592592592595 28.237934904601566  0.7777777777777778 27.656565656565654  L 8.944444444444445 18.5  L 0.7777777777777778 9.343434343434343  C 0.2592592592592595 8.762065095398427  0 8.05611672278339  0 7.225589225589226  C 0 6.395061728395062  0.2592592592592595 5.689113355780017  0.7777777777777778 5.107744107744109  L 4.555555555555556 0.8720538720538722  C 5.074074074074074 0.29068462401795603  5.703703703703704 0  6.444444444444445 0  C 7.185185185185185 0  7.814814814814816 0.29068462401795603  8.333333333333334 0.8720538720538722  L 16.5 10.02861952861953  L 24.666666666666668 0.8720538720538722  C 25.185185185185187 0.29068462401795603  25.814814814814817 0  26.555555555555557 0  C 27.296296296296298 0  27.92592592592593 0.29068462401795603  28.444444444444443 0.8720538720538722  L 32.22222222222222 5.107744107744109  C 32.74074074074074 5.689113355780017  33 6.395061728395062  33 7.225589225589226  C 33 8.05611672278339  32.74074074074074 8.762065095398427  32.22222222222222 9.343434343434343  L 24.055555555555554 18.5  L 32.22222222222222 27.656565656565654  Z " fill-rule="nonzero" fill="#000000" stroke="none" transform="matrix(1 0 0 1 1552 48 )" />
  </g>
</svg>