<?xml version="1.0" encoding="utf-8"?>
<svg version="1.1" xmlns:xlink="http://www.w3.org/1999/xlink" width="6px" height="10px" xmlns="http://www.w3.org/2000/svg">
  <g transform="matrix(1 0 0 1 -194 -20 )">
    <path d="M 5.659198159532025 8.776881922030952  C 5.659198159532025 9.210517268975764  5.308631535342101 9.562556847953147  4.875 9.564374999999927  C 4.665680149588297 9.56558519755481  4.464491079258551 9.483409380096418  4.315874999999778 9.33600000000024  L 0.3783749999997781 5.39850000000024  C 0.07304266916526103 5.0913455047302705  0.07304266916526103 4.595279495270006  0.3783749999997781 4.288125000000036  L 4.315874999999778 0.3506250000000364  C 4.465487901901724 0.1759207318427798  4.684003376604778 0.0753594460484237  4.914015553951231 0.0753594460484237  C 5.34893979444314 0.0753594460484237  5.7015155539515945 0.427935205556878  5.7015155539515945 0.8628594460487876  C 5.7015155539515945 1.09287162339524  5.600954268157238 1.3113870980982938  5.426249999999982 1.4609999999997856  L 2.0478750000002037 4.839375000000018  L 5.426249999999982 8.217750000000251  C 5.5753379776183465 8.365616736135507  5.659198159532025 8.566901454544677  5.659198159532025 8.776881922030952  Z " fill-rule="nonzero" fill="#48465b" stroke="none" transform="matrix(1 0 0 1 194 20 )" />
  </g>
</svg>