<?xml version="1.0" encoding="utf-8"?>
<svg version="1.1" xmlns:xlink="http://www.w3.org/1999/xlink" width="13px" height="13px" viewBox="567 222  13 13" xmlns="http://www.w3.org/2000/svg">
  <path d="M 573.5 222  C 577.14 222  580 224.86  580 228.5  C 580 232.14  577.14 235  573.5 235  C 569.86 235  567 232.14  567 228.5  C 567 224.86  569.86 222  573.5 222  Z " fill-rule="nonzero" fill="#f0f0f0" stroke="none" />
  <path d="M 573.5 222.5  C 576.86 222.5  579.5 225.14  579.5 228.5  C 579.5 231.86  576.86 234.5  573.5 234.5  C 570.14 234.5  567.5 231.86  567.5 228.5  C 567.5 225.14  570.14 222.5  573.5 222.5  Z " stroke-width="1" stroke="#797979" fill="none" />
  <path d="M 573.5 231.75  C 571.68 231.75  570.25 230.32  570.25 228.5  C 570.25 226.68  571.68 225.25  573.5 225.25  C 575.32 225.25  576.75 226.68  576.75 228.5  C 576.75 230.32  575.32 231.75  573.5 231.75  " fill-rule="nonzero" fill="#797979" stroke="none" />
</svg>