<?xml version="1.0" encoding="utf-8"?>
<svg version="1.1" xmlns:xlink="http://www.w3.org/1999/xlink" width="11px" height="6px" xmlns="http://www.w3.org/2000/svg">
  <g transform="matrix(1 0 0 1 -547 -56 )">
    <path d="M 5.088909774436104 3.5459899749373562  L 8.361090225563942 0.3165831244778019  C 8.560700362016178 0.11697298802550904  8.8013018657756 0.017167919799476294  9.08289473684215 0.017167919799476294  C 9.3644876079087 0.017167919799476294  9.605089111668065 0.11697298802550904  9.8046992481203 0.3165831244778019  C 10.01143831801727 0.5161932609300948  10.114807852965782 0.7550125313282479  10.114807852965782 1.0330409356724886  C 10.114807852965782 1.3110693400167293  10.01143831801727 1.5498886104148824  9.8046992481203 1.7494987468671752  L 5.805367585630734 5.727443609022657  C 5.719820384294053 5.82724867724869  5.6128863826232305 5.8967557783346365  5.484565580618209 5.935964912280724  C 5.356244778613245 5.975174046226812  5.220795043163491 5.991214146477205  5.0782163742690045 5.984085213032586  C 4.935637705374518 5.9769562795879665  4.794841269841243 5.94665831244788  4.655827067669179 5.893191311612327  C 4.516812865497059 5.839724310777001  4.397403230297982 5.763088276246208  4.297598162071836 5.663283208020175  L 0.36242690058480775 1.7494987468671752  C 0.15568783068783887 1.5498886104148824  0.052318295739326004 1.3110693400167293  0.052318295739326004 1.0330409356724886  C 0.052318295739326004 0.7550125313282479  0.15568783068783887 0.5161932609300948  0.36242690058480775 0.3165831244778019  C 0.46223196881089734 0.21677805625176916  0.5745126705652979 0.1419242550821309  0.6992690058479525 0.09202172096911454  C 0.8240253411306071 0.04211918685609817  0.9523461431356282 0.017167919799476294  1.0842314118629588 0.017167919799476294  C 1.2161166805903463 0.017167919799476294  1.346219715956579 0.04211918685609817  1.4745405179615432 0.09202172096911454  C 1.602861319966564 0.1419242550821309  1.7169242550821195 0.21677805625176916  1.816729323308266 0.3165831244778019  L 5.088909774436104 3.5459899749373562  Z " fill-rule="nonzero" fill="#51545f" stroke="none" transform="matrix(1 0 0 1 547 56 )" />
  </g>
</svg>