<?xml version="1.0" encoding="utf-8"?>
<svg version="1.1" xmlns:xlink="http://www.w3.org/1999/xlink" width="64px" height="38px" xmlns="http://www.w3.org/2000/svg">
  <defs>
    <mask fill="white" id="clip27">
      <path d="M 19 38  C 8.360000000000014 38  0 29.63999999999999  0 19  C 0 8.360000000000014  8.360000000000014 0  19 0  L 35 0  L 45 0  C 55.639999999999986 0  64 8.360000000000014  64 19  C 64 29.63999999999999  55.639999999999986 38  45 38  L 19 38  Z " fill-rule="evenodd" />
    </mask>
  </defs>
  <g transform="matrix(1 0 0 1 -447 -677 )">
    <path d="M 19 38  C 8.360000000000014 38  0 29.63999999999999  0 19  C 0 8.360000000000014  8.360000000000014 0  19 0  L 35 0  L 45 0  C 55.639999999999986 0  64 8.360000000000014  64 19  C 64 29.63999999999999  55.639999999999986 38  45 38  L 19 38  Z " fill-rule="nonzero" fill="#ffebf1" stroke="none" transform="matrix(1 0 0 1 447 677 )" />
    <path d="M 19 38  C 8.360000000000014 38  0 29.63999999999999  0 19  C 0 8.360000000000014  8.360000000000014 0  19 0  L 35 0  L 45 0  C 55.639999999999986 0  64 8.360000000000014  64 19  C 64 29.63999999999999  55.639999999999986 38  45 38  L 19 38  Z " stroke-width="2" stroke="#ffebf1" fill="none" transform="matrix(1 0 0 1 447 677 )" mask="url(#clip27)" />
  </g>
</svg>