<?xml version="1.0" encoding="utf-8"?>
<svg version="1.1" xmlns:xlink="http://www.w3.org/1999/xlink" width="120px" height="29px" xmlns="http://www.w3.org/2000/svg">
  <defs>
    <mask fill="white" id="clip21">
      <path d="M 0 24  L 0 5  C 0 2.2000000000000455  2.2000000000000455 0  5 0  L 32 0  L 40 0  L 46 0  L 64 0  L 74 0  L 104 0  L 115 0  C 117.79999999999995 0  120 2.2000000000000455  120 5  L 120 24  C 120 26.799999999999955  117.79999999999995 29  115 29  L 76 29  L 5 29  C 2.2000000000000455 29  0 26.799999999999955  0 24  Z " fill-rule="evenodd" />
    </mask>
  </defs>
  <g transform="matrix(1 0 0 1 -1351 -1765 )">
    <path d="M 0 24  L 0 5  C 0 2.2000000000000455  2.2000000000000455 0  5 0  L 32 0  L 40 0  L 46 0  L 64 0  L 74 0  L 104 0  L 115 0  C 117.79999999999995 0  120 2.2000000000000455  120 5  L 120 24  C 120 26.799999999999955  117.79999999999995 29  115 29  L 76 29  L 5 29  C 2.2000000000000455 29  0 26.799999999999955  0 24  Z " fill-rule="nonzero" fill="#ffffff" stroke="none" transform="matrix(1 0 0 1 1351 1765 )" />
    <path d="M 0 24  L 0 5  C 0 2.2000000000000455  2.2000000000000455 0  5 0  L 32 0  L 40 0  L 46 0  L 64 0  L 74 0  L 104 0  L 115 0  C 117.79999999999995 0  120 2.2000000000000455  120 5  L 120 24  C 120 26.799999999999955  117.79999999999995 29  115 29  L 76 29  L 5 29  C 2.2000000000000455 29  0 26.799999999999955  0 24  Z " stroke-width="2" stroke="#797979" fill="none" transform="matrix(1 0 0 1 1351 1765 )" mask="url(#clip21)" />
  </g>
</svg>