<?xml version="1.0" encoding="utf-8"?>
<svg version="1.1" xmlns:xlink="http://www.w3.org/1999/xlink" width="32px" height="33px" xmlns="http://www.w3.org/2000/svg">
  <g transform="matrix(1 0 0 1 -1702 -43 )">
    <path d="M 16 31.526785714285715  C 16.205128205128208 31.526785714285715  16.30769230769231 31.42857142857143  16.307692307692307 31.232142857142858  C 16.30769230769231 31.035714285714285  16.205128205128208 30.9375  16 30.9375  C 15.243589743589745 30.9375  14.59294871794872 30.676618303571427  14.048076923076923 30.154854910714285  C 13.50320512820513 29.633091517857142  13.23076923076923 29.010044642857142  13.23076923076923 28.28571428571429  C 13.23076923076923 28.08928571428571  13.12820512820513 27.991071428571427  12.923076923076923 27.991071428571427  C 12.717948717948719 27.991071428571427  12.615384615384615 28.08928571428571  12.615384615384615 28.28571428571429  C 12.615384615384615 29.181919642857142  12.945512820512821 29.94614955357143  13.60576923076923 30.578404017857142  C 14.266025641025642 31.210658482142858  15.064102564102566 31.526785714285715  16 31.526785714285715  Z M 30.25 24.30803571428571  C 30.77564102564103 24.872767857142858  31.35897435897436 25.412946428571427  32 25.928571428571427  C 32.00000000000001 26.56696428571429  31.75641025641026 27.119419642857146  31.26923076923077 27.5859375  C 30.782051282051285 28.052455357142854  30.205128205128208 28.28571428571429  29.53846153846154 28.28571428571429  L 20.923076923076923 28.28571428571429  C 20.923076923076923 29.587053571428573  20.442307692307693 30.698102678571427  19.48076923076923 31.618861607142858  C 18.51923076923077 32.539620535714285  17.35897435897436 33  16 33  C 14.641025641025642 33  13.48076923076923 32.539620535714285  12.51923076923077 31.618861607142858  C 11.557692307692308 30.698102678571427  11.076923076923077 29.587053571428573  11.076923076923077 28.28571428571429  L 2.4615384615384617 28.28571428571429  C 1.7948717948717952 28.28571428571429  1.217948717948718 28.052455357142854  0.7307692307692307 27.5859375  C 0.24358974358974367 27.119419642857146  0 26.56696428571429  0 25.928571428571427  C 0.6410256410256412 25.412946428571427  1.2243589743589747 24.872767857142858  1.75 24.30803571428571  C 2.275641025641026 23.74330357142857  2.8205128205128207 23.009765625  3.3846153846153846 22.107421875  C 3.9487179487179493 21.205078125  4.426282051282052 20.232142857142854  4.8173076923076925 19.188616071428573  C 5.208333333333334 18.145089285714285  5.528846153846154 16.880580357142858  5.778846153846154 15.395089285714285  C 6.028846153846154 13.909598214285714  6.153846153846154 12.313616071428568  6.153846153846154 10.607142857142856  C 6.153846153846154 8.741071428571427  6.903846153846154 7.006975446428572  8.403846153846153 5.404854910714284  C 9.903846153846153 3.802734375  11.871794871794872 2.829799107142855  14.307692307692308 2.486049107142856  C 14.205128205128206 2.2527901785714257  14.153846153846153 2.013392857142857  14.153846153846153 1.767857142857144  C 14.153846153846153 1.2767857142857135  14.333333333333334 0.8593749999999988  14.692307692307692 0.515625  C 15.051282051282053 0.17187500000000122  15.487179487179487 0  16 0  C 16.512820512820515 0  16.948717948717952 0.17187500000000122  17.307692307692307 0.515625  C 17.666666666666668 0.8593749999999988  17.846153846153847 1.2767857142857135  17.846153846153847 1.767857142857144  C 17.846153846153847 2.013392857142857  17.794871794871796 2.2527901785714257  17.692307692307693 2.486049107142856  C 20.12820512820513 2.829799107142855  22.096153846153847 3.802734375  23.596153846153847 5.404854910714284  C 25.096153846153847 7.006975446428572  25.846153846153847 8.741071428571427  25.846153846153847 10.607142857142856  C 25.846153846153847 12.313616071428568  25.971153846153847 13.909598214285714  26.221153846153847 15.395089285714285  C 26.471153846153847 16.880580357142858  26.791666666666668 18.145089285714285  27.182692307692307 19.188616071428573  C 27.573717948717952 20.232142857142854  28.05128205128205 21.205078125  28.615384615384617 22.107421875  C 29.179487179487182 23.009765625  29.72435897435898 23.74330357142857  30.25 24.30803571428571  Z " fill-rule="nonzero" fill="#000000" stroke="none" transform="matrix(1 0 0 1 1702 43 )" />
  </g>
</svg>