<?xml version="1.0" encoding="utf-8"?>
<svg version="1.1" xmlns:xlink="http://www.w3.org/1999/xlink" width="40px" height="40px" xmlns="http://www.w3.org/2000/svg">
  <defs>
    <filter x="1714px" y="21px" width="40px" height="40px" filterUnits="userSpaceOnUse" id="filter7">
      <feOffset dx="1" dy="1" in="SourceAlpha" result="shadowOffsetInner" />
      <feGaussianBlur stdDeviation="2.5" in="shadowOffsetInner" result="shadowGaussian" />
      <feComposite in2="shadowGaussian" operator="atop" in="SourceAlpha" result="shadowComposite" />
      <feColorMatrix type="matrix" values="0 0 0 0 0  0 0 0 0 0  0 0 0 0 0  0 0 0 0.6980392156862745 0  " in="shadowComposite" />
    </filter>
    <g id="widget8">
      <path d="M 1733 25  C 1741.4 25  1748 31.6  1748 40  C 1748 48.400000000000006  1741.4 55  1733 55  C 1724.6 55  1718 48.400000000000006  1718 40  C 1718 31.6  1724.6 25  1733 25  Z " fill-rule="nonzero" fill="#ec808d" stroke="none" />
      <path d="M 1733 25.5  C 1741.12 25.5  1747.5 31.88  1747.5 40  C 1747.5 48.120000000000005  1741.12 54.5  1733 54.5  C 1724.88 54.5  1718.5 48.120000000000005  1718.5 40  C 1718.5 31.88  1724.88 25.5  1733 25.5  Z " stroke-width="1" stroke="#ffffff" fill="none" />
    </g>
  </defs>
  <g transform="matrix(1 0 0 1 -1714 -21 )">
    <use xlink:href="#widget8" filter="url(#filter7)" />
    <use xlink:href="#widget8" />
  </g>
</svg>