<?xml version="1.0" encoding="utf-8"?>
<svg version="1.1" xmlns:xlink="http://www.w3.org/1999/xlink" width="11px" height="11px" xmlns="http://www.w3.org/2000/svg">
  <g transform="matrix(1 0 0 1 -608 -14 )">
    <path d="M 10.4808 0.12320000000000011  C 10.2696 0.07040000000000006  10.0877392 0.12026080000000011  9.9352 0.27280000000000026  L 5.5 4.708  L 1.0648 0.27280000000000026  C 0.9474607999999998 0.16720000000000015  0.8154607999999997 0.11440000000000011  0.6688000000000001 0.11440000000000011  C 0.5221392000000005 0.11440000000000011  0.3930607999999999 0.17013920000000016  0.28160000000000024 0.28160000000000024  C 0.17013920000000066 0.3930608000000003  0.11440000000000011 0.5221392000000005  0.11440000000000011 0.6688000000000001  C 0.11440000000000011 0.8154607999999997  0.16720000000000015 0.9474608000000004  0.27280000000000026 1.0648  L 4.708 5.5  L 0.27280000000000026 9.9352  C 0.12026080000000011 10.0877392  0.07040000000000006 10.2696  0.12320000000000011 10.4808  C 0.17600000000000016 10.692  0.30506080000000024 10.824  0.5104 10.8768  C 0.7157391999999996 10.9296  0.9005391999999999 10.8797392  1.0648 10.7272  L 5.5 6.292000000000001  L 9.9352 10.7272  C 10.0525392 10.8328  10.184539200000001 10.8856  10.331199999999999 10.8856  C 10.477860799999998 10.8856  10.6069392 10.8298608  10.718399999999999 10.718400000000003  C 10.8298608 10.606939200000003  10.885599999999998 10.477860800000002  10.885599999999998 10.3312  C 10.885599999999998 10.184539200000001  10.832799999999999 10.052539200000002  10.727199999999998 9.935200000000002  L 6.292000000000001 5.5  L 10.7272 1.0648  C 10.8797392 0.9122607999999999  10.9296 0.7304000000000002  10.8768 0.5192  C 10.824 0.3079999999999998  10.692 0.17600000000000016  10.4808 0.12320000000000011  Z " fill-rule="nonzero" fill="#409eff" stroke="none" transform="matrix(1 0 0 1 608 14 )" />
  </g>
</svg>