<?xml version="1.0" encoding="utf-8"?>
<svg version="1.1" xmlns:xlink="http://www.w3.org/1999/xlink" width="27px" height="32px" xmlns="http://www.w3.org/2000/svg">
  <g transform="matrix(1 0 0 1 -21 -79 )">
    <path d="M 4.07048275862069 4.824275862068966  C 6.5830245517241375 1.846448551724138  9.726196965517243 0.29865489655172417  13.5 0.18096551724137921  C 17.273803034482757 0.29865489655172417  20.41697544827586 1.846448551724138  22.929517241379312 4.824275862068966  C 25.44205903448276 7.802103172413792  26.74800993103448 11.52734455172414  26.847310344827584 16  C 26.74800993103448 20.472655448275862  25.44205903448276 24.197896827586206  22.929517241379312 27.175724137931034  C 20.41697544827586 30.153551448275863  17.273803034482757 31.701345103448276  13.5 31.819034482758617  C 9.726196965517243 31.701345103448272  6.5830245517241375 30.153551448275863  4.07048275862069 27.175724137931034  C 1.5579409655172414 24.197896827586206  0.2519900689655173 20.472655448275862  0.1526896551724137 16  C 0.2519900689655173 11.52734455172414  1.5579409655172414 7.802103172413792  4.07048275862069 4.824275862068966  Z M 14.78110344827586 7.631448275862072  C 14.443458206896548 7.1841721379310375  14.016403862068964 6.960551724137934  13.5 6.960551724137931  C 12.983596137931036 6.960551724137931  12.556541793103449 7.184172137931034  12.218896551724137 7.631448275862069  C 11.88125131034483 8.078724413793104  11.732285793103449 8.608379586206897  11.772 9.220413793103448  L 12.457241379310345 18.259862068965518  C 12.496955586206896 18.589413517241383  12.611182344827586 18.854241103448278  12.799862068965519 19.054344827586206  C 12.98854179310345 19.25444855172414  13.221940965517241 19.354482758620687  13.5 19.354482758620687  C 13.77805903448276 19.354482758620687  14.011458206896554 19.25444855172414  14.200137931034481 19.054344827586206  C 14.388817655172412 18.854241103448278  14.503044413793102 18.58941351724138  14.542758620689652 18.259862068965518  L 15.227999999999998 9.22041379310345  C 15.267714206896551 8.6083795862069  15.118748689655172 8.078724413793106  14.78110344827586 7.631448275862072  Z M 12.412551724137932 24.509793103448274  C 12.700561655172415 24.83934455172414  13.063024551724139 25.01589627586207  13.5 25.039448275862068  C 13.936975448275861 25.01589627586207  14.299438344827585 24.83934455172414  14.587448275862068 24.509793103448274  C 14.875458206896552 24.180241655172413  15.019448275862066 23.756517517241377  15.019448275862066 23.23862068965517  C 15.019448275862066 22.720723862068965  14.875458206896552 22.29113820689655  14.587448275862068 21.949793103448275  C 14.299438344827585 21.608448  13.936975448275861 21.43779310344828  13.5 21.43779310344828  C 13.063024551724139 21.43779310344828  12.700561655172415 21.608448  12.412551724137932 21.949793103448275  C 12.12454179310345 22.29113820689655  11.980551724137932 22.720723862068965  11.980551724137932 23.23862068965517  C 11.980551724137932 23.756517517241377  12.124541793103448 24.180241655172413  12.412551724137932 24.509793103448274  Z " fill-rule="nonzero" fill="#e6a23c" stroke="none" transform="matrix(1 0 0 1 21 79 )" />
  </g>
</svg>