<?xml version="1.0" encoding="utf-8"?>
<svg version="1.1" xmlns:xlink="http://www.w3.org/1999/xlink" width="23px" height="33px" xmlns="http://www.w3.org/2000/svg">
  <g transform="matrix(1 0 0 1 -18 -82 )">
    <path d="M 3.4674482758620693 4.975034482758621  C 5.607761655172413 1.9041500689655173  8.285278896551725 0.30798786206896556  11.5 0.1866206896551723  C 14.714721103448277 0.30798786206896556  17.392238344827586 1.9041500689655173  19.53255172413793 4.975034482758621  C 21.672865103448277 8.045918896551724  22.78534179310345 11.887574068965518  22.869931034482757 16.5  C 22.785341793103445 21.112425931034483  21.672865103448277 24.954081103448274  19.53255172413793 28.02496551724138  C 17.392238344827586 31.095849931034483  14.714721103448277 32.69201213793104  11.5 32.81337931034482  C 8.285278896551725 32.69201213793103  5.607761655172413 31.095849931034483  3.4674482758620693 28.02496551724138  C 1.3271348965517242 24.954081103448274  0.21465820689655174 21.112425931034483  0.13006896551724131 16.5  C 0.21465820689655174 11.887574068965518  1.3271348965517242 8.045918896551724  3.4674482758620693 4.975034482758621  Z M 12.591310344827585 7.869931034482762  C 12.303686620689652 7.408677517241382  11.939899586206895 7.1780689655172445  11.5 7.178068965517241  C 11.060100413793103 7.178068965517241  10.696313379310345 7.408677517241379  10.408689655172415 7.869931034482758  C 10.121065931034483 8.331184551724139  9.994169379310346 8.877391448275864  10.028 9.50855172413793  L 10.611724137931034 18.83048275862069  C 10.645554758620689 19.170332689655176  10.742859034482759 19.443436137931037  10.903586206896552 19.649793103448275  C 11.064313379310345 19.85615006896552  11.263134896551724 19.959310344827582  11.5 19.959310344827582  C 11.736865103448277 19.959310344827582  11.935686620689657 19.85615006896552  12.096413793103448 19.649793103448275  C 12.257140965517241 19.443436137931037  12.35444524137931 19.170332689655172  12.388275862068962 18.83048275862069  L 12.972 9.508551724137932  C 13.005830620689654 8.877391448275866  12.878934068965517 8.33118455172414  12.591310344827585 7.869931034482762  Z M 10.573655172413794 25.275724137931032  C 10.818996965517242 25.61557406896552  11.127761655172414 25.797643034482757  11.5 25.821931034482756  C 11.872238344827586 25.797643034482757  12.181003034482758 25.61557406896552  12.426344827586206 25.275724137931032  C 12.671686620689655 24.93587420689655  12.794344827586205 24.49890868965517  12.794344827586205 23.964827586206894  C 12.794344827586205 23.43074648275862  12.671686620689655 22.98773627586207  12.426344827586206 22.635724137931035  C 12.181003034482758 22.283711999999998  11.872238344827586 22.107724137931037  11.5 22.107724137931037  C 11.127761655172414 22.107724137931037  10.818996965517242 22.283711999999998  10.573655172413794 22.635724137931035  C 10.328313379310346 22.98773627586207  10.205655172413794 23.43074648275862  10.205655172413794 23.964827586206894  C 10.205655172413794 24.49890868965517  10.328313379310345 24.93587420689655  10.573655172413794 25.275724137931032  Z " fill-rule="nonzero" fill="#e6a23c" stroke="none" transform="matrix(1 0 0 1 18 82 )" />
  </g>
</svg>