<?xml version="1.0" encoding="utf-8"?>
<svg version="1.1" xmlns:xlink="http://www.w3.org/1999/xlink" width="12px" height="6px" xmlns="http://www.w3.org/2000/svg">
  <g transform="matrix(1 0 0 1 -248 -113 )">
    <path d="M 11.456 0.11261538461538369  C 11.328 0.11261538461538369  11.216 0.15692307692307605  11.12 0.24553846153846154  L 5.999999999999999 4.85353846153846  L 0.879999999999999 0.24553846153846076  C 0.7839999999999989 0.15692307692307605  0.6719999999999988 0.11261538461538369  0.5439999999999992 0.11261538461538369  C 0.4159999999999995 0.11261538461538369  0.3039999999999994 0.15692307692307605  0.2079999999999993 0.24553846153846076  C 0.11199999999999921 0.3341538461538454  0.06399999999999917 0.4375384615384609  0.06399999999999917 0.5556923076923072  C 0.06399999999999917 0.6738461538461534  0.10667199999999921 0.7723126153846147  0.19199999999999928 0.8510769230769227  L 5.648 5.7544615384615385  C 5.744 5.843076923076923  5.861327999999999 5.887384615384615  6 5.887384615384615  C 6.138672 5.887384615384615  6.256 5.843076923076923  6.352 5.7544615384615385  L 11.808 0.8658461538461537  C 11.893328 0.777230769230769  11.936 0.6713796923076923  11.936 0.5483076923076918  C 11.936 0.4252356923076913  11.888 0.32185107692307663  11.792 0.23815384615384533  C 11.696 0.15445661538461408  11.584 0.11261538461538369  11.456 0.11261538461538369  Z " fill-rule="nonzero" fill="#c0c4cc" stroke="none" transform="matrix(1 0 0 1 248 113 )" />
  </g>
</svg>