<?xml version="1.0" encoding="utf-8"?>
<svg version="1.1" xmlns:xlink="http://www.w3.org/1999/xlink" width="13px" height="16px" xmlns="http://www.w3.org/2000/svg">
  <g transform="matrix(1 0 0 1 -476 -27 )">
    <path d="M 12.386400000000002 0.17920000000000016  C 12.1368 0.10240000000000009  11.9218736 0.17492480000000016  11.7416 0.3968000000000004  L 6.5 6.848000000000001  L 1.2584 0.3968000000000004  C 1.1197263999999998 0.24320000000000022  0.9637263999999996 0.16640000000000016  0.7904000000000001 0.16640000000000016  C 0.6170736000000006 0.16640000000000016  0.46452639999999984 0.24747520000000023  0.33280000000000026 0.40960000000000035  C 0.20107360000000077 0.5717248000000005  0.13520000000000013 0.7594752000000007  0.13520000000000013 0.9728000000000001  C 0.13520000000000013 1.1861247999999995  0.1976000000000002 1.3781248000000006  0.3224000000000003 1.5488  L 5.564000000000001 8  L 0.3224000000000003 14.4512  C 0.14212640000000012 14.6730752  0.08320000000000007 14.9376  0.14560000000000015 15.244800000000001  C 0.20800000000000018 15.552000000000001  0.3605264000000003 15.744  0.6032 15.8208  C 0.8458735999999996 15.8976  1.0642736 15.8250752  1.2584 15.603200000000001  L 6.5 9.152000000000001  L 11.7416 15.603200000000001  C 11.8802736 15.756800000000002  12.036273600000001 15.8336  12.209599999999998 15.8336  C 12.382926399999999 15.8336  12.535473599999998 15.7525248  12.6672 15.590400000000002  C 12.7989264 15.428275200000005  12.864799999999999 15.240524800000003  12.864799999999999 15.027200000000002  C 12.864799999999999 14.813875200000002  12.802399999999999 14.621875200000002  12.677599999999998 14.451200000000004  L 7.436000000000001 8  L 12.677600000000002 1.5488  C 12.857873600000001 1.3269247999999998  12.9168 1.0624000000000002  12.8544 0.7552  C 12.792 0.4479999999999997  12.636000000000001 0.2560000000000002  12.386400000000002 0.17920000000000016  Z " fill-rule="nonzero" fill="#909399" stroke="none" transform="matrix(1 0 0 1 476 27 )" />
  </g>
</svg>