<?xml version="1.0" encoding="utf-8"?>
<svg version="1.1" xmlns:xlink="http://www.w3.org/1999/xlink" width="12px" height="16px" xmlns="http://www.w3.org/2000/svg">
  <g transform="matrix(1 0 0 1 -412 -28 )">
    <path d="M 11.433600000000002 0.17920000000000016  C 11.203199999999999 0.10240000000000009  11.0048064 0.17492480000000016  10.8384 0.3968000000000004  L 6 6.848000000000001  L 1.1616 0.3968000000000004  C 1.0335935999999997 0.24320000000000022  0.8895935999999997 0.16640000000000016  0.7296 0.16640000000000016  C 0.5696064000000005 0.16640000000000016  0.4287935999999999 0.24747520000000023  0.30720000000000025 0.40960000000000035  C 0.18560640000000073 0.5717248000000005  0.12480000000000012 0.7594752000000007  0.12480000000000012 0.9728000000000001  C 0.12480000000000012 1.1861247999999995  0.18240000000000017 1.3781248000000006  0.2976000000000003 1.5488  L 5.136000000000001 8  L 0.2976000000000003 14.4512  C 0.13119360000000013 14.6730752  0.07680000000000006 14.9376  0.13440000000000013 15.244800000000001  C 0.19200000000000017 15.552000000000001  0.33279360000000024 15.744  0.5568 15.8208  C 0.7808063999999996 15.8976  0.9824063999999999 15.8250752  1.1616 15.603200000000001  L 6 9.152000000000001  L 10.8384 15.603200000000001  C 10.9664064 15.756800000000002  11.110406400000002 15.8336  11.270399999999999 15.8336  C 11.430393599999999 15.8336  11.571206399999998 15.7525248  11.692799999999998 15.590400000000002  C 11.814393599999999 15.428275200000005  11.8752 15.240524800000003  11.8752 15.027200000000002  C 11.8752 14.813875200000002  11.817599999999999 14.621875200000002  11.702399999999997 14.451200000000004  L 6.864000000000001 8  L 11.7024 1.5488  C 11.8688064 1.3269247999999998  11.923200000000001 1.0624000000000002  11.8656 0.7552  C 11.808 0.4479999999999997  11.664000000000001 0.2560000000000002  11.433600000000002 0.17920000000000016  Z " fill-rule="nonzero" fill="#606266" stroke="none" transform="matrix(1 0 0 1 412 28 )" />
  </g>
</svg>