<?xml version="1.0" encoding="utf-8"?>
<svg version="1.1" xmlns:xlink="http://www.w3.org/1999/xlink" width="14px" height="15px" xmlns="http://www.w3.org/2000/svg">
  <g transform="matrix(1 0 0 1 -292 -2268 )">
    <path d="M 5.390518518518518 3.944745762711864  L 1.6737777777777776 10.257966101694915  L 4.8927407407407415 12.080338983050845  L 8.609481481481481 5.767118644067796  L 5.390518518518518 3.944745762711864  Z M 4.2290370370370365 12.893898305084747  L 1.2755555555555556 11.234237288135594  L 1.823111111111111 13.642372881355934  L 4.2290370370370365 12.893898305084747  Z M 6.86725925925926 1.4389830508474577  L 5.921481481481482 3.0335593220338986  L 9.140444444444444 4.8559322033898304  L 10.086222222222224 3.26135593220339  L 6.86725925925926 1.4389830508474577  Z M 1.0432592592592613 14.976610169491524  L 0.09748148148148272 10.843728813559323  L 6.4690370370370385 0.023389830508474256  L 11.52977777777778 2.887118644067796  L 5.158222222222224 13.707457627118643  L 1.0432592592592613 14.976610169491524  Z M 13.90251851851852 14.976610169491526  L 6.4690370370370385 14.976610169491526  L 6.4690370370370385 13.935254237288135  L 13.90251851851852 13.935254237288135  L 13.90251851851852 14.976610169491526  Z " fill-rule="nonzero" fill="#ffffff" stroke="none" transform="matrix(1 0 0 1 292 2268 )" />
  </g>
</svg>