<?xml version="1.0" encoding="utf-8"?>
<svg version="1.1" xmlns:xlink="http://www.w3.org/1999/xlink" width="14px" height="14px" xmlns="http://www.w3.org/2000/svg">
  <g transform="matrix(1 0 0 1 -404 -2268 )">
    <path d="M 1.562206896551724 13.42648275862069  L 1.562206896551724 3.0452413793103448  L 0.5735172413793105 3.0452413793103448  C 0.42933848275862085 3.0452413793103448  0.310896551724138 2.9988965517241377  0.21820689655172423 2.906206896551724  C 0.12551724137931047 2.81351724137931  0.07917241379310351 2.6950753103448273  0.07917241379310351 2.5508965517241378  C 0.07917241379310351 2.4067177931034482  0.12551724137931047 2.2882758620689656  0.21820689655172423 2.1955862068965515  C 0.310896551724138 2.102896551724138  0.42933848275862085 2.056551724137931  0.5735172413793105 2.056551724137931  L 4.528275862068965 2.056551724137931  L 4.528275862068965 0.5735172413793105  C 4.528275862068965 0.42933848275862085  4.574620689655173 0.310896551724138  4.6673103448275866 0.21820689655172423  C 4.760000000000001 0.12551724137931047  4.878441931034483 0.07917241379310351  5.022620689655174 0.07917241379310351  L 8.97737931034483 0.07917241379310351  C 9.12155806896552 0.07917241379310351  9.240000000000002 0.12551724137931047  9.332689655172416 0.21820689655172423  C 9.42537931034483 0.310896551724138  9.471724137931037 0.42933848275862085  9.471724137931037 0.5735172413793105  L 9.471724137931037 2.056551724137931  L 13.426482758620692 2.056551724137931  C 13.570661517241382 2.056551724137931  13.689103448275866 2.102896551724138  13.781793103448278 2.1955862068965515  C 13.874482758620692 2.2882758620689656  13.920827586206899 2.4067177931034482  13.920827586206899 2.5508965517241378  C 13.920827586206899 2.6950753103448273  13.874482758620692 2.81351724137931  13.781793103448278 2.906206896551724  C 13.689103448275866 2.9988965517241377  13.570661517241382 3.0452413793103448  13.426482758620692 3.0452413793103448  L 12.437793103448277 3.0452413793103448  L 12.437793103448277 13.42648275862069  C 12.437793103448277 13.57066151724138  12.391448275862071 13.689103448275864  12.298758620689656 13.781793103448276  C 12.206068965517243 13.87448275862069  12.08762703448276 13.920827586206897  11.943448275862071 13.920827586206897  L 2.056551724137931 13.920827586206897  C 1.9123729655172412 13.920827586206897  1.7939310344827581 13.87448275862069  1.701241379310345 13.781793103448276  C 1.6085517241379315 13.689103448275864  1.562206896551724 13.57066151724138  1.562206896551724 13.42648275862069  Z M 5.516965517241379 2.056551724137931  L 8.48303448275862 2.056551724137931  L 8.48303448275862 1.0678620689655172  L 5.516965517241379 1.0678620689655172  L 5.516965517241379 2.056551724137931  Z M 2.5508965517241378 3.0452413793103448  L 2.5508965517241378 12.932137931034482  L 11.449103448275862 12.932137931034482  L 11.449103448275862 3.0452413793103448  L 2.5508965517241378 3.0452413793103448  Z M 5.872275862068966 10.815724137931035  C 5.7795862068965524 10.908413793103447  5.661144275862069 10.954758620689654  5.516965517241379 10.954758620689654  C 5.37278675862069 10.954758620689654  5.254344827586207 10.908413793103447  5.161655172413793 10.815724137931035  C 5.068965517241379 10.72303448275862  5.022620689655173 10.604592551724139  5.022620689655173 10.460413793103447  L 5.022620689655173 5.516965517241379  C 5.022620689655173 5.37278675862069  5.068965517241379 5.254344827586207  5.161655172413793 5.161655172413793  C 5.254344827586207 5.068965517241379  5.372786758620689 5.022620689655173  5.516965517241379 5.022620689655173  C 5.661144275862069 5.022620689655173  5.7795862068965524 5.068965517241379  5.872275862068966 5.161655172413793  C 5.96496551724138 5.254344827586207  6.011310344827587 5.372786758620689  6.011310344827587 5.516965517241379  L 6.011310344827587 10.460413793103447  C 6.011310344827587 10.604592551724139  5.96496551724138 10.72303448275862  5.872275862068966 10.815724137931035  Z M 8.838344827586209 10.815724137931035  C 8.745655172413795 10.908413793103447  8.627213241379312 10.954758620689654  8.483034482758622 10.954758620689654  C 8.338855724137932 10.954758620689654  8.220413793103448 10.908413793103447  8.127724137931036 10.815724137931035  C 8.035034482758622 10.72303448275862  7.988689655172414 10.604592551724139  7.988689655172414 10.460413793103447  L 7.988689655172414 5.516965517241379  C 7.988689655172414 5.37278675862069  8.035034482758622 5.254344827586207  8.127724137931036 5.161655172413793  C 8.220413793103448 5.068965517241379  8.338855724137932 5.022620689655173  8.483034482758622 5.022620689655173  C 8.627213241379312 5.022620689655173  8.745655172413795 5.068965517241379  8.838344827586209 5.161655172413793  C 8.931034482758623 5.254344827586207  8.97737931034483 5.372786758620689  8.97737931034483 5.516965517241379  L 8.97737931034483 10.460413793103447  C 8.97737931034483 10.604592551724139  8.931034482758623 10.72303448275862  8.838344827586209 10.815724137931035  Z " fill-rule="nonzero" fill="#ffffff" stroke="none" transform="matrix(1 0 0 1 404 2268 )" />
  </g>
</svg>