<?xml version="1.0" encoding="utf-8"?>
<svg version="1.1" xmlns:xlink="http://www.w3.org/1999/xlink" width="22px" height="13px" xmlns="http://www.w3.org/2000/svg">
  <g transform="matrix(1 0 0 1 -629 -18 )">
    <path d="M 20.9616 0.14560000000000015  C 20.5392 0.08320000000000007  20.1754784 0.14212640000000012  19.8704 0.3224000000000003  L 11 5.564000000000001  L 2.1296 0.3224000000000003  C 1.8949215999999995 0.1976000000000002  1.6309215999999993 0.13520000000000013  1.3376000000000001 0.13520000000000013  C 1.044278400000001 0.13520000000000013  0.7861215999999998 0.20107360000000019  0.5632000000000005 0.33280000000000026  C 0.3402784000000013 0.4645264000000004  0.22880000000000023 0.6170736000000006  0.22880000000000023 0.7904000000000001  C 0.22880000000000023 0.9637263999999996  0.3344000000000003 1.1197264000000005  0.5456000000000005 1.2584  L 9.416 6.5  L 0.5456000000000005 11.7416  C 0.24052160000000022 11.9218736  0.14080000000000012 12.1368  0.24640000000000023 12.386400000000002  C 0.3520000000000003 12.636000000000001  0.6101216000000005 12.792  1.0208 12.8544  C 1.4314783999999992 12.9168  1.8010783999999997 12.857873600000001  2.1296 12.677600000000002  L 11 7.436000000000001  L 19.8704 12.677600000000002  C 20.1050784 12.802400000000002  20.369078400000003 12.8648  20.662399999999998 12.8648  C 20.955721599999997 12.8648  21.2138784 12.7989264  21.436799999999998 12.667200000000001  C 21.6597216 12.535473600000005  21.771199999999997 12.382926400000002  21.771199999999997 12.209600000000002  C 21.771199999999997 12.036273600000001  21.665599999999998 11.8802736  21.454399999999996 11.741600000000004  L 12.584000000000001 6.5  L 21.4544 1.2584  C 21.7594784 1.0781264  21.8592 0.8632000000000002  21.7536 0.6136  C 21.648 0.3639999999999997  21.384 0.20800000000000018  20.9616 0.14560000000000015  Z " fill-rule="nonzero" fill="#409eff" stroke="none" transform="matrix(1 0 0 1 629 18 )" />
  </g>
</svg>