<?xml version="1.0" encoding="utf-8"?>
<svg version="1.1" xmlns:xlink="http://www.w3.org/1999/xlink" width="7px" height="12px" xmlns="http://www.w3.org/2000/svg">
  <g transform="matrix(1 0 0 1 -5 -2269 )">
    <path d="M 6.351692307692307 0.06399999999999917  C 6.213846153846154 0.06399999999999917  6.093230769230769 0.10667199999999921  5.989846153846154 0.19200000000000017  L 0.28646153846153755 5.648000000000001  C 0.18307692307692205 5.744000000000001  0.1313846153846143 5.858672  0.1313846153846143 5.992000000000001  C 0.1313846153846143 6.125328000000001  0.18307692307692205 6.245328000000001  0.28646153846153755 6.352  L 5.989846153846154 11.808  C 6.093230769230769 11.893328  6.213846153846154 11.936  6.351692307692307 11.936  C 6.489538461538461 11.936  6.610153846153846 11.888  6.7135384615384615 11.792  C 6.816923076923077 11.696  6.868615384615385 11.584  6.868615384615385 11.456  C 6.868615384615385 11.328  6.816923076923077 11.216  6.7135384615384615 11.12  L 1.3375384615384616 5.999999999999999  L 6.7135384615384615 0.879999999999999  C 6.816923076923077 0.7839999999999989  6.868615384615385 0.6719999999999988  6.868615384615385 0.5439999999999992  C 6.868615384615385 0.4159999999999995  6.816923076923077 0.3039999999999994  6.7135384615384615 0.2079999999999993  C 6.610153846153846 0.11199999999999921  6.489538461538461 0.06399999999999917  6.351692307692307 0.06399999999999917  Z " fill-rule="nonzero" fill="#ffffff" stroke="none" transform="matrix(1 0 0 1 5 2269 )" />
  </g>
</svg>