<?xml version="1.0" encoding="utf-8"?>
<svg version="1.1" xmlns:xlink="http://www.w3.org/1999/xlink" width="7px" height="12px" xmlns="http://www.w3.org/2000/svg">
  <g transform="matrix(1 0 0 1 -231 -2269 )">
    <path d="M 0.6483076923076917 0.06399999999999917  C 0.5104615384615376 0.06399999999999917  0.38984615384615295 0.10667199999999921  0.28646153846153843 0.19200000000000017  C 0.183076923076923 0.29867200000000027  0.13138461538461527 0.41600000000000037  0.13138461538461527 0.544  C 0.13138461538461527 0.6719999999999997  0.183076923076923 0.7839999999999998  0.28646153846153843 0.8799999999999999  L 5.662461538461537 6  L 0.28646153846153755 11.120000000000001  C 0.18307692307692205 11.216000000000001  0.1313846153846143 11.328000000000001  0.1313846153846143 11.456000000000001  C 0.1313846153846143 11.584000000000001  0.18307692307692205 11.696000000000002  0.28646153846153755 11.792000000000002  C 0.38984615384615295 11.888000000000002  0.5104615384615376 11.936000000000002  0.6483076923076917 11.936000000000002  C 0.7861538461538456 11.936000000000002  0.9067692307692304 11.893328000000002  1.010153846153846 11.808000000000002  L 6.7135384615384615 6.352  C 6.816923076923077 6.256  6.868615384615385 6.138672  6.868615384615385 6  C 6.868615384615385 5.861328  6.816923076923077 5.744  6.7135384615384615 5.648  L 1.010153846153846 0.19199999999999928  C 0.9067692307692304 0.10667199999999921  0.7861538461538456 0.06399999999999917  0.6483076923076917 0.06399999999999917  Z " fill-rule="nonzero" fill="#ffffff" stroke="none" transform="matrix(1 0 0 1 231 2269 )" />
  </g>
</svg>