<?xml version="1.0" encoding="utf-8"?>
<svg version="1.1" xmlns:xlink="http://www.w3.org/1999/xlink" width="14px" height="14px" xmlns="http://www.w3.org/2000/svg">
  <g transform="matrix(1 0 0 1 -348 -2268 )">
    <path d="M 11.493798400000001 4.709931520000002  C 10.932311040000002 4.6860441600000025  10.436518399999999 4.476971520000003  10.0064384 4.08273152  L 4.5945984 7.451691520000002  C 4.69018368 7.762316800000001  4.7200384 8.07889152  4.6841984 8.401451520000002  L 9.701798400000001 10.28305152  C 10.04826368 9.805196800000003  10.493271040000002 9.500556800000002  11.0368384 9.369131520000002  C 11.58042368 9.237724159999999  12.11503104 9.30940416  12.6406784 9.58417152  C 13.166343680000002 9.858956800000001  13.527718400000003 10.25617152  13.724838400000003 10.775851520000002  C 13.921958400000001 11.295531520000003  13.918983680000002 11.83313152  13.715878400000003 12.388651520000002  C 13.512791040000003 12.944171520000001  13.163351040000002 13.3533568  12.667558400000003 13.616171520000002  C 12.171783680000004 13.879004160000001  11.637158400000004 13.941724160000001  11.063718400000003 13.80433152  C 10.490278400000001 13.666956800000001  10.039303680000002 13.371276799999999  9.710758400000003 12.91729152  C 9.38223104 12.463324159999999  9.247831040000001 11.9376768  9.307558400000003 11.34033152  L 4.289958400000002 9.45873152  C 4.003238400000002 9.864924160000001  3.6388710400000024 10.148651520000001  3.1968384000000025 10.309931520000001  C 2.754823680000002 10.47121152  2.2978636800000025 10.48913152  1.8259584000000024 10.363691520000001  C 1.3540710400000024 10.23825152  0.9657984000000024 9.99633152  0.6611584000000023 9.637931520000002  C 0.3565184000000019 9.27953152  0.18031104000000228 8.858411520000002  0.13251840000000223 8.374571520000002  C 0.0847436800000022 7.890731520000001  0.17434368000000225 7.442731520000001  0.40131840000000196 7.030571520000002  C 0.6283110400000022 6.618411520000001  0.9628236800000021 6.307804160000002  1.4048384000000018 6.098731520000002  C 1.8468710400000017 5.889676800000001  2.2978636800000016 5.817996800000002  2.757798400000002 5.883691520000002  C 3.217751040000002 5.949404160000001  3.626918400000002 6.149516800000002  3.985318400000002 6.484011520000003  L 9.397158400000002 3.115051520000002  C 9.229911040000003 2.5416115200000027  9.259783680000004 1.9980441600000023  9.486758400000003 1.4843315200000022  C 9.713751040000004 0.9706368000000023  10.096038400000005 0.5913241600000024  10.633638400000002 0.34641152000000225  C 11.171238400000002 0.1015168000000023  11.70586368 0.05969152000000225  12.237478400000002 0.22097152000000214  C 12.769111040000004 0.3822515200000023  13.193223680000003 0.7137715200000021  13.509798400000001 1.2155315200000019  C 13.826391040000003 1.7172915200000018  13.939878400000003 2.2429568000000017  13.850278400000002 2.7924915200000022  C 13.760678400000002 3.342044160000002  13.485911040000001 3.804971520000002  13.0259584 4.181291520000002  C 12.56602368 4.557611520000003  12.055303680000002 4.7338368000000015  11.493798400000001 4.709931520000002  Z " fill-rule="nonzero" fill="#ffffff" stroke="none" transform="matrix(1 0 0 1 348 2268 )" />
  </g>
</svg>