<?xml version="1.0" encoding="utf-8"?>
<svg version="1.1" xmlns:xlink="http://www.w3.org/1999/xlink" width="41px" height="34px" xmlns="http://www.w3.org/2000/svg">
  <g transform="matrix(1 0 0 1 -1561 -1184 )">
    <path d="M 40.033670033670035 25.41414141414141  C 40.67789001122335 25.948372615039276  41 26.59708193041526  41 27.36026936026936  C 41 28.123456790123463  40.67789001122335 28.772166105499437  40.033670033670035 29.306397306397304  L 35.340067340067336 33.1986531986532  C 34.69584736251404 33.73288439955107  33.91358024691358 34  32.99326599326599 34  C 32.07295173961841 34  31.29068462401796 33.73288439955107  30.646464646464647 33.1986531986532  L 20.5 24.784511784511785  L 10.353535353535355 33.1986531986532  C 9.709315375982044 33.73288439955107  8.927048260381595 34  8.006734006734007 34  C 7.08641975308642 34  6.304152637485972 33.73288439955107  5.65993265993266 33.1986531986532  L 0.9663299663299664 29.306397306397304  C 0.32210998877665575 28.772166105499437  0 28.123456790123463  0 27.36026936026936  C 0 26.59708193041526  0.32210998877665575 25.948372615039276  0.9663299663299664 25.41414141414141  L 11.112794612794612 17  L 0.9663299663299664 8.585858585858585  C 0.32210998877665575 8.051627384960716  0 7.402918069584737  0 6.63973063973064  C 0 5.876543209876543  0.32210998877665575 5.227833894500556  0.9663299663299664 4.693602693602695  L 5.65993265993266 0.8013468013468015  C 6.304152637485972 0.26711560044893257  7.08641975308642 0  8.006734006734007 0  C 8.927048260381595 0  9.709315375982044 0.26711560044893257  10.353535353535355 0.8013468013468015  L 20.5 9.215488215488216  L 30.646464646464647 0.8013468013468015  C 31.29068462401796 0.26711560044893257  32.07295173961841 0  32.99326599326599 0  C 33.91358024691358 0  34.69584736251404 0.26711560044893257  35.340067340067336 0.8013468013468015  L 40.033670033670035 4.693602693602695  C 40.67789001122335 5.227833894500556  41 5.876543209876543  41 6.63973063973064  C 41 7.402918069584737  40.67789001122335 8.051627384960716  40.033670033670035 8.585858585858585  L 29.887205387205384 17  L 40.033670033670035 25.41414141414141  Z " fill-rule="nonzero" fill="#000000" stroke="none" transform="matrix(1 0 0 1 1561 1184 )" />
  </g>
</svg>