<?xml version="1.0" encoding="utf-8"?>
<svg version="1.1" xmlns:xlink="http://www.w3.org/1999/xlink" width="25px" height="20px" xmlns="http://www.w3.org/2000/svg">
  <g transform="matrix(1 0 0 1 -1471 -1769 )">
    <path d="M 24.749498997995993 2.061855670103092  C 24.916499665998664 2.290950744558986  25 2.5544100801832736  25 2.852233676975946  C 25 3.1500572737686117  24.916499665998664 3.413516609392895  24.749498997995993 3.6426116838487976  L 13.076152304609218 19.65635738831615  C 12.909151636606547 19.885452462772044  12.717100868403474 20  12.5 20  C 12.282899131596528 20  12.090848363393455 19.885452462772044  11.923847695390782 19.65635738831615  L 0.250501002004008 3.6426116838487976  C 0.08350033400133625 3.413516609392895  0 3.1500572737686117  0 2.852233676975946  C 0 2.5544100801832736  0.08350033400133625 2.290950744558986  0.250501002004008 2.061855670103092  L 1.503006012024048 0.3436426116838498  C 1.6700066800267206 0.11454753722794697  1.8620574482297931 0  2.0791583166332663 0  C 2.2962591850367406 0  2.488309953239813 0.11454753722794697  2.655310621242485 0.3436426116838498  L 12.5 13.848797250859107  L 22.344689378757515 0.3436426116838498  C 22.511690046760187 0.11454753722794697  22.70374081496326 0  22.92084168336673 0  C 23.13794255177021 0  23.329993319973283 0.11454753722794697  23.49699398797595 0.3436426116838498  L 24.749498997995993 2.061855670103092  Z " fill-rule="nonzero" fill="#7f7f7f" stroke="none" transform="matrix(1 0 0 1 1471 1769 )" />
  </g>
</svg>