<?xml version="1.0" encoding="utf-8"?>
<svg version="1.1" xmlns:xlink="http://www.w3.org/1999/xlink" width="13px" height="13px" viewBox="487 300  13 13" xmlns="http://www.w3.org/2000/svg">
  <path d="M 493.5 300  C 497.14 300  500 302.86  500 306.5  C 500 310.14  497.14 313  493.5 313  C 489.86 313  487 310.14  487 306.5  C 487 302.86  489.86 300  493.5 300  Z " fill-rule="nonzero" fill="#ffffff" stroke="none" />
  <path d="M 493.5 300.5  C 496.86 300.5  499.5 303.14  499.5 306.5  C 499.5 309.86  496.86 312.5  493.5 312.5  C 490.14 312.5  487.5 309.86  487.5 306.5  C 487.5 303.14  490.14 300.5  493.5 300.5  Z " stroke-width="1" stroke="#797979" fill="none" />
  <path d="M 493.5 309.75  C 491.68 309.75  490.25 308.32  490.25 306.5  C 490.25 304.68  491.68 303.25  493.5 303.25  C 495.32 303.25  496.75 304.68  496.75 306.5  C 496.75 308.32  495.32 309.75  493.5 309.75  " fill-rule="nonzero" fill="#797979" stroke="none" />
</svg>