<?xml version="1.0" encoding="utf-8"?>
<svg version="1.1" xmlns:xlink="http://www.w3.org/1999/xlink" width="13px" height="13px" viewBox="594 300  13 13" xmlns="http://www.w3.org/2000/svg">
  <path d="M 600.5 300  C 604.14 300  607 302.86  607 306.5  C 607 310.14  604.14 313  600.5 313  C 596.86 313  594 310.14  594 306.5  C 594 302.86  596.86 300  600.5 300  Z " fill-rule="nonzero" fill="#f0f0f0" stroke="none" />
  <path d="M 600.5 300.5  C 603.86 300.5  606.5 303.14  606.5 306.5  C 606.5 309.86  603.86 312.5  600.5 312.5  C 597.14 312.5  594.5 309.86  594.5 306.5  C 594.5 303.14  597.14 300.5  600.5 300.5  Z " stroke-width="1" stroke="#797979" fill="none" />
  <path d="M 600.5 309.75  C 598.68 309.75  597.25 308.32  597.25 306.5  C 597.25 304.68  598.68 303.25  600.5 303.25  C 602.32 303.25  603.75 304.68  603.75 306.5  C 603.75 308.32  602.32 309.75  600.5 309.75  " fill-rule="nonzero" fill="#797979" stroke="none" />
</svg>