<?xml version="1.0" encoding="utf-8"?>
<svg version="1.1" xmlns:xlink="http://www.w3.org/1999/xlink" width="180px" height="128px" xmlns="http://www.w3.org/2000/svg">
  <defs>
    <filter x="-10px" y="-10px" width="180px" height="128px" filterUnits="userSpaceOnUse" id="filter29">
      <feOffset dx="0" dy="0" in="SourceAlpha" result="shadowOffsetInner" />
      <feGaussianBlur stdDeviation="5" in="shadowOffsetInner" result="shadowGaussian" />
      <feComposite in2="shadowGaussian" operator="atop" in="SourceAlpha" result="shadowComposite" />
      <feColorMatrix type="matrix" values="0 0 0 0 0.6  0 0 0 0 0.6  0 0 0 0 0.6  0 0 0 0.34901960784313724 0  " in="shadowComposite" />
    </filter>
    <g id="widget30">
      <path d="M 1 2  A 1 1 0 0 1 1.9999999999999998 1 L 158 1  A 1 1 0 0 1 159 2 L 159 106  A 1 1 0 0 1 158 107 L 2 107  A 1 1 0 0 1 1 106 L 1 2  Z " fill-rule="nonzero" fill="#ffffff" stroke="none" />
      <path d="M 0.5 2.0000000000000004  A 1.5 1.5 0 0 1 1.9999999999999996 0.5 L 158 0.5  A 1.5 1.5 0 0 1 159.5 2 L 159.5 106  A 1.5 1.5 0 0 1 158 107.5 L 2 107.5  A 1.5 1.5 0 0 1 0.5 106 L 0.5 2  Z " stroke-width="1" stroke="#ffffff" fill="none" stroke-opacity="0.14901960784313725" />
    </g>
  </defs>
  <g transform="matrix(1 0 0 1 10 10 )">
    <use xlink:href="#widget30" filter="url(#filter29)" />
    <use xlink:href="#widget30" />
  </g>
</svg>